<svg xmlns="http://www.w3.org/2000/svg" width="343.269" height="340" viewBox="0 0 343.269 340">
  <g id="_404_error_with_people_holding_the_numbers-amico" data-name="404 error with people holding the numbers-amico" transform="translate(-18.93 -30.75)">
    <g id="freepik--Floor--inject-2" transform="translate(18.93 172.562)">
      <path id="freepik--floor--inject-2-2" data-name="freepik--floor--inject-2" d="M69.2,250.69c-67.029,38.7-67.029,101.443,0,140.142s175.706,38.7,242.728,0,67.029-101.443,0-140.142S136.224,212,69.2,250.69Z" transform="translate(-18.93 -221.669)" fill="#f5f5f5"/>
    </g>
    <g id="freepik--Clouds--inject-2" transform="translate(25.458 30.75)">
      <g id="freepik--clouds--inject-2-2" data-name="freepik--clouds--inject-2">
        <path id="Path_1" data-name="Path 1" d="M56.236,45.791h8.394a4.895,4.895,0,0,1-.067-.81v-1.8c0-3.246,3.038-5.875,6.782-5.875a7.428,7.428,0,0,1,4.048,1.166c.617-4.353,4.88-7.718,10.072-7.718,5.608,0,10.154,3.937,10.154,8.787v2.733a7.792,7.792,0,0,1-.862,3.521h6.975a3.558,3.558,0,0,1,3.766,3.253,3.563,3.563,0,0,1-3.766,3.261h-45.5a3.558,3.558,0,0,1-3.766-3.261A3.553,3.553,0,0,1,56.236,45.791Z" transform="translate(-34.085 -30.75)" fill="#f5f5f5"/>
        <path id="Path_2" data-name="Path 2" d="M63.158,91.352H57.119a3.654,3.654,0,0,0,.052-.579V89.466c0-2.34-2.184-4.226-4.88-4.226a5.415,5.415,0,0,0-2.912.839c-.438-3.127-3.513-5.549-7.242-5.549-4.033,0-7.3,2.83-7.3,6.329V88.82a5.6,5.6,0,0,0,.617,2.54H30.438a2.37,2.37,0,1,0,0,4.687h32.72a2.369,2.369,0,1,0,0-4.687Z" transform="translate(-27.719 -43.554)" fill="#f5f5f5"/>
      </g>
      <g id="freepik--clouds--inject-2-3" data-name="freepik--clouds--inject-2" transform="translate(212.966 2.548)">
        <path id="Path_3" data-name="Path 3" d="M400.356,105.536h8.423a4.883,4.883,0,0,1-.074-.8v-1.827c0-3.246,3.038-5.875,6.789-5.875a7.428,7.428,0,0,1,4.041,1.166c.594-4.36,4.843-7.718,10.042-7.718,5.608,0,10.154,3.937,10.154,8.795v2.733a7.791,7.791,0,0,1-.862,3.536h6.975a3.295,3.295,0,1,1,0,6.522H400.356a3.3,3.3,0,1,1,0-6.529Z" transform="translate(-335.563 -48.661)" fill="#f5f5f5"/>
        <path id="Path_4" data-name="Path 4" d="M450.437,58.992H444.4a3.637,3.637,0,0,0,.052-.572V57.106c0-2.332-2.191-4.226-4.88-4.226a5.341,5.341,0,0,0-2.912.839c-.446-3.127-3.513-5.556-7.242-5.549-4.033,0-7.3,2.83-7.3,6.321v1.961a5.578,5.578,0,0,0,.617,2.54h-5.014a2.369,2.369,0,1,0,0,4.694h32.72a2.369,2.369,0,1,0,0-4.694Z" transform="translate(-340.304 -37.778)" fill="#f5f5f5"/>
        <path id="Path_5" data-name="Path 5" d="M355.454,48.679h-4.947a5.333,5.333,0,0,0,.067-.743v-1.79c0-3.127-2.927-5.66-6.537-5.66a7.19,7.19,0,0,0-3.892,1.122c-.594-4.182-4.7-7.428-9.7-7.428-5.4,0-9.775,3.788-9.775,8.468v2.629a7.494,7.494,0,0,0,.824,3.4h-3.439a3.41,3.41,0,0,0-3.625,3.142,3.4,3.4,0,0,0,3.625,3.135h37.4a3.409,3.409,0,0,0,3.625-3.135A3.415,3.415,0,0,0,355.454,48.679Z" transform="translate(-314.43 -34.18)" fill="#f5f5f5"/>
      </g>
    </g>
    <g id="freepik--Plants--inject-2" transform="translate(24.277 251.627)">
      <g id="freepik--plants--inject-2-2" data-name="freepik--plants--inject-2" transform="translate(0 10.061)">
        <path id="Path_6" data-name="Path 6" d="M32.43,346.94a3.647,3.647,0,0,0-1.322-3.669,6.844,6.844,0,0,0-3.64-1.6c-.193.119,0,2.139,1.53,3.766A4.256,4.256,0,0,0,32.43,346.94Z" transform="translate(-26.457 -341.657)" fill="#0b64d9"/>
        <path id="Path_7" data-name="Path 7" d="M32.971,354.018a3.714,3.714,0,0,0-2.86-2.667,6.841,6.841,0,0,0-3.974.23c-.119.193.98,1.9,3.083,2.659a4.33,4.33,0,0,0,3.751-.223Z" transform="translate(-26.128 -344.107)" fill="#0b64d9"/>
        <path id="Path_8" data-name="Path 8" d="M39.76,353.582a3.647,3.647,0,0,0,2.139-3.268,6.49,6.49,0,0,0-.743-3.714,5.572,5.572,0,0,0-2.377,3.357,3.84,3.84,0,0,0,.98,3.625Z" transform="translate(-29.352 -342.928)" fill="#0b64d9"/>
        <path id="Path_9" data-name="Path 9" d="M39.914,369.269a14.856,14.856,0,0,0,.119-5.125,28.76,28.76,0,0,0-.891-4.694,37.452,37.452,0,0,0-3.892-9.136,20.227,20.227,0,0,0-3.922-5.073s-.119.045-.089.074a30.354,30.354,0,0,1,3.209,4.843,35.435,35.435,0,0,1,2.31,4.665,36.01,36.01,0,0,1,2.228,8.535,50.909,50.909,0,0,1,.275,5.831.329.329,0,0,0,.654.082Z" transform="translate(-27.441 -342.579)" fill="#37474f"/>
        <path id="Path_10" data-name="Path 10" d="M39.444,356.3a11.7,11.7,0,0,0,.914-2.414,6.559,6.559,0,0,0,.253-2.459c0-.111-.1.037-.119.111a18.055,18.055,0,0,1-.52,2.147,8.379,8.379,0,0,1-1,2.11.527.527,0,0,0,0,.594.282.282,0,0,0,.475-.089Z" transform="translate(-29.407 -344.159)" fill="#37474f"/>
        <path id="Path_11" data-name="Path 11" d="M37.171,356.47a9.6,9.6,0,0,0-2.852-2.228,11.056,11.056,0,0,0-1.486-.706,6.461,6.461,0,0,0-1.9-.446s-.178.059-.134.074a17.832,17.832,0,0,1,1.8.669,10.147,10.147,0,0,1,1.538.824,15.019,15.019,0,0,1,2.756,2.176C37.03,357,37.3,356.633,37.171,356.47Z" transform="translate(-27.327 -344.598)" fill="#37474f"/>
        <path id="Path_12" data-name="Path 12" d="M36.731,362.494a3.662,3.662,0,0,0-2.228-3.2,7.039,7.039,0,0,0-3.929-.6c-.156.141.557,2.065,2.459,3.246a4.286,4.286,0,0,0,3.7.557Z" transform="translate(-27.266 -346.017)" fill="#0b64d9"/>
        <path id="Path_13" data-name="Path 13" d="M40.356,365.648a9.411,9.411,0,0,0-2.332-2.733,10.084,10.084,0,0,0-1.315-1,6.4,6.4,0,0,0-1.76-.832s-.186,0-.141.037a17.766,17.766,0,0,1,1.627,1.032,10.116,10.116,0,0,1,1.337,1.122A15.767,15.767,0,0,1,40,365.938C40.148,366.138,40.453,365.834,40.356,365.648Z" transform="translate(-28.359 -346.653)" fill="#37474f"/>
      </g>
      <g id="freepik--plants--inject-2-3" data-name="freepik--plants--inject-2" transform="translate(11.335)">
        <path id="Path_14" data-name="Path 14" d="M50.518,334.714a3.974,3.974,0,0,1,.743-4.182,7.409,7.409,0,0,1,3.58-2.414c.23.089.409,2.288-.906,4.323a4.657,4.657,0,0,1-3.417,2.273Z" transform="translate(-43.66 -328.112)" fill="#0b64d9"/>
        <path id="Path_15" data-name="Path 15" d="M50.6,342.454a3.959,3.959,0,0,1,2.525-3.395c1.909-.81,4.13-.743,4.293-.52s-.683,2.228-2.785,3.439a4.635,4.635,0,0,1-4.033.475Z" transform="translate(-43.757 -330.756)" fill="#0b64d9"/>
        <path id="Path_16" data-name="Path 16" d="M44.546,343.3a3.966,3.966,0,0,1-2.919-3.075,7.351,7.351,0,0,1,.067-4.145c.208-.134,2.31,1.151,3.2,3.135A4.167,4.167,0,0,1,44.546,343.3Z" transform="translate(-41.388 -330.158)" fill="#0b64d9"/>
        <path id="Path_17" data-name="Path 17" d="M46.451,359.98a16.275,16.275,0,0,1-1.122-5.46,30.989,30.989,0,0,1,.045-5.2,40.192,40.192,0,0,1,2.384-10.466,21.645,21.645,0,0,1,3.2-6.18c0-.037.141,0,.119.059a32.364,32.364,0,0,0-2.5,5.8,37.8,37.8,0,0,0-1.56,5.422,39.152,39.152,0,0,0-.743,9.56,54.526,54.526,0,0,0,.839,6.284.349.349,0,0,1-.669.178Z" transform="translate(-42.379 -329.282)" fill="#37474f"/>
        <path id="Path_18" data-name="Path 18" d="M45.8,346.118a13.183,13.183,0,0,1-1.486-2.407,7.145,7.145,0,0,1-.743-2.57c0-.126.119,0,.149.089a19.929,19.929,0,0,0,.966,2.228,9.225,9.225,0,0,0,1.486,2.065.557.557,0,0,1,.082.639.3.3,0,0,1-.453-.045Z" transform="translate(-41.949 -331.45)" fill="#37474f"/>
        <path id="Path_19" data-name="Path 19" d="M46.773,345.784a10.132,10.132,0,0,1,2.622-2.9,11.184,11.184,0,0,1,1.486-1.047A7.169,7.169,0,0,1,52.8,341s.2,0,.156.045a18.244,18.244,0,0,0-1.783,1.07,10.782,10.782,0,0,0-1.486,1.174,16.592,16.592,0,0,0-2.5,2.815C47.025,346.318,46.661,345.977,46.773,345.784Z" transform="translate(-42.768 -331.427)" fill="#37474f"/>
        <path id="Path_20" data-name="Path 20" d="M48.508,352.173a3.959,3.959,0,0,1,1.775-3.848,7.307,7.307,0,0,1,4.085-1.4c.2.149-.2,2.31-2,3.937A4.665,4.665,0,0,1,48.508,352.173Z" transform="translate(-43.21 -332.944)" fill="#0b64d9"/>
        <path id="Path_21" data-name="Path 21" d="M45.537,356.195a10.243,10.243,0,0,1,1.961-3.38,11.3,11.3,0,0,1,1.211-1.322,7,7,0,0,1,1.731-1.233H50.6a20.553,20.553,0,0,0-1.523,1.419,11.2,11.2,0,0,0-1.211,1.486,17.018,17.018,0,0,0-1.857,3.283C45.879,356.67,45.471,356.41,45.537,356.195Z" transform="translate(-42.453 -333.809)" fill="#37474f"/>
      </g>
      <g id="freepik--plants--inject-2-4" data-name="freepik--plants--inject-2" transform="translate(320.754 10.061)">
        <path id="Path_22" data-name="Path 22" d="M467.051,346.94a3.662,3.662,0,0,1,1.322-3.669,6.844,6.844,0,0,1,3.64-1.6c.193.119,0,2.139-1.523,3.766a4.271,4.271,0,0,1-3.439,1.5Z" transform="translate(-460.271 -341.657)" fill="#0b64d9"/>
        <path id="Path_23" data-name="Path 23" d="M465.92,354.018a3.662,3.662,0,0,1,2.86-2.667,6.812,6.812,0,0,1,3.966.23c.111.193-.981,1.9-3.083,2.659a4.308,4.308,0,0,1-3.744-.223Z" transform="translate(-460.002 -344.107)" fill="#0b64d9"/>
        <path id="Path_24" data-name="Path 24" d="M460.366,353.582a3.654,3.654,0,0,1-2.139-3.268,6.625,6.625,0,0,1,.743-3.714,5.632,5.632,0,0,1,2.384,3.357,3.818,3.818,0,0,1-.988,3.625Z" transform="translate(-458.021 -342.928)" fill="#0b64d9"/>
        <path id="Path_25" data-name="Path 25" d="M458.24,369.269a15.034,15.034,0,0,1-.126-5.125,28,28,0,0,1,.9-4.694,36.89,36.89,0,0,1,3.892-9.136,20.057,20.057,0,0,1,3.914-5.073c.037,0,.126.045.1.074a29.952,29.952,0,0,0-3.216,4.843,34.52,34.52,0,0,0-2.3,4.665,35.655,35.655,0,0,0-2.228,8.535,49.259,49.259,0,0,0-.275,5.831.329.329,0,0,1-.654.082Z" transform="translate(-457.953 -342.579)" fill="#37474f"/>
        <path id="Path_26" data-name="Path 26" d="M461.208,356.3a11.291,11.291,0,0,1-.914-2.414,6.559,6.559,0,0,1-.253-2.459c0-.111.1.037.119.111a19.612,19.612,0,0,0,.513,2.147,8.638,8.638,0,0,0,1,2.117.505.505,0,0,1,0,.594.275.275,0,0,1-.468-.1Z" transform="translate(-458.483 -344.159)" fill="#37474f"/>
        <path id="Path_27" data-name="Path 27" d="M461.858,356.47a9.546,9.546,0,0,1,2.86-2.228,10.966,10.966,0,0,1,1.486-.706,6.559,6.559,0,0,1,1.909-.446s.171.059.126.074a17.692,17.692,0,0,0-1.79.668,10.618,10.618,0,0,0-1.545.824,15.017,15.017,0,0,0-2.733,2.147C462.006,357,461.724,356.633,461.858,356.47Z" transform="translate(-458.948 -344.598)" fill="#37474f"/>
        <path id="Path_28" data-name="Path 28" d="M462.38,362.494a3.662,3.662,0,0,1,2.228-3.2,7.068,7.068,0,0,1,3.937-.6c.156.141-.565,2.065-2.459,3.246a4.3,4.3,0,0,1-3.707.557Z" transform="translate(-459.091 -346.017)" fill="#0b64d9"/>
        <path id="Path_29" data-name="Path 29" d="M458.992,365.648a9.413,9.413,0,0,1,2.332-2.733,10.081,10.081,0,0,1,1.315-1,6.493,6.493,0,0,1,1.768-.832s.186,0,.149.037a18.947,18.947,0,0,0-1.619,1.032,9.569,9.569,0,0,0-1.33,1.122,15.485,15.485,0,0,0-2.228,2.667C459.222,366.138,458.873,365.834,458.992,365.648Z" transform="translate(-458.214 -346.653)" fill="#37474f"/>
      </g>
      <g id="freepik--plants--inject-2-5" data-name="freepik--plants--inject-2" transform="translate(309.977)">
        <path id="Path_30" data-name="Path 30" d="M451.092,334.714a3.966,3.966,0,0,0-.7-4.182,7.409,7.409,0,0,0-3.58-2.414c-.23.089-.416,2.288.9,4.323a4.672,4.672,0,0,0,3.38,2.273Z" transform="translate(-444.268 -328.112)" fill="#0b64d9"/>
        <path id="Path_31" data-name="Path 31" d="M450.289,342.454a3.981,3.981,0,0,0-2.54-3.395c-1.9-.81-4.122-.743-4.286-.52s.676,2.228,2.778,3.439A4.65,4.65,0,0,0,450.289,342.454Z" transform="translate(-443.443 -330.756)" fill="#0b64d9"/>
        <path id="Path_32" data-name="Path 32" d="M457.367,343.3a3.959,3.959,0,0,0,2.912-3.075,7.277,7.277,0,0,0-.067-4.145c-.215-.134-2.3,1.151-3.194,3.135A4.145,4.145,0,0,0,457.367,343.3Z" transform="translate(-446.837 -330.158)" fill="#0b64d9"/>
        <path id="Path_33" data-name="Path 33" d="M454.779,359.98a16.1,16.1,0,0,0,1.129-5.46,31,31,0,0,0-.045-5.2,40.5,40.5,0,0,0-2.384-10.466,21.661,21.661,0,0,0-3.209-6.18c0-.037-.141,0-.111.059a32.268,32.268,0,0,1,2.488,5.8,37.8,37.8,0,0,1,1.567,5.422,39.153,39.153,0,0,1,.743,9.56,56.208,56.208,0,0,1-.839,6.284.349.349,0,0,0,.661.178Z" transform="translate(-445.17 -329.282)" fill="#37474f"/>
        <path id="Path_34" data-name="Path 34" d="M456.488,346.118a12.4,12.4,0,0,0,1.448-2.407,7.146,7.146,0,0,0,.743-2.57c0-.126-.119,0-.141.089a21.5,21.5,0,0,1-.973,2.228,9.229,9.229,0,0,1-1.486,2.065.564.564,0,0,0-.082.639.3.3,0,0,0,.49-.045Z" transform="translate(-446.656 -331.45)" fill="#37474f"/>
        <path id="Path_35" data-name="Path 35" d="M454.322,345.784a10.273,10.273,0,0,0-2.629-2.9,11.139,11.139,0,0,0-1.486-1.047,7.2,7.2,0,0,0-1.954-.839s-.2,0-.156.045a18.351,18.351,0,0,1,1.79,1.07,10.7,10.7,0,0,1,1.486,1.174,16.979,16.979,0,0,1,2.511,2.815C454.062,346.318,454.434,345.977,454.322,345.784Z" transform="translate(-444.639 -331.427)" fill="#37474f"/>
        <path id="Path_36" data-name="Path 36" d="M452.688,352.173a3.966,3.966,0,0,0-1.768-3.848,7.338,7.338,0,0,0-4.085-1.4c-.193.149.2,2.31,2,3.937a4.65,4.65,0,0,0,3.855,1.307Z" transform="translate(-444.304 -332.944)" fill="#0b64d9"/>
        <path id="Path_37" data-name="Path 37" d="M455.964,356.195a10.4,10.4,0,0,0-1.961-3.38,12,12,0,0,0-1.211-1.322,7.14,7.14,0,0,0-1.731-1.233H450.9a19.153,19.153,0,0,1,1.523,1.419,10.636,10.636,0,0,1,1.211,1.486,17.08,17.08,0,0,1,1.864,3.283C455.6,356.67,456.031,356.41,455.964,356.195Z" transform="translate(-445.36 -333.809)" fill="#37474f"/>
      </g>
    </g>
    <g id="freepik--Shadows--inject-2" transform="translate(32.649 269.571)">
      <ellipse id="freepik--Shadow--inject-2" cx="39.895" cy="23.034" rx="39.895" ry="23.034" transform="translate(111.767 37.08)" fill="#e0e0e0"/>
      <ellipse id="freepik--shadow--inject-2-2" data-name="freepik--shadow--inject-2" cx="39.895" cy="23.034" rx="39.895" ry="23.034" transform="translate(236.452)" fill="#e0e0e0"/>
      <ellipse id="freepik--shadow--inject-2-3" data-name="freepik--shadow--inject-2" cx="39.895" cy="23.034" rx="39.895" ry="23.034" fill="#e0e0e0"/>
    </g>
    <g id="freepik--speech-bubble--inject-2" transform="translate(157.482 57.425)">
      <g id="freepik--speech-bubble--inject-2-2" data-name="freepik--speech-bubble--inject-2">
        <g id="freepik--speech-bubble--inject-2-3" data-name="freepik--speech-bubble--inject-2">
          <path id="Path_38" data-name="Path 38" d="M255.311,106.348l-.186-7.064s14.158-1.887,12.627-16.579c-.943-9.173-5.9-16.274-34.74-15.457-31.836.906-28.969,19.974-25.426,25.388,5.289,8.171,18.139,9.069,40.913,7.807l5.719,6.329a.609.609,0,0,0,1.092-.423Z" transform="translate(-205.47 -66.797)" fill="#fafafa"/>
          <path id="Path_39" data-name="Path 39" d="M254.662,107.692l-6.314-6.982c-22.982,1.27-35.736.215-41.076-7.992-1.961-3.023-2.9-9.441.163-15.279,2.429-4.628,8.839-10.243,25.589-10.718,27.758-.743,34.109,5.757,35.134,15.814,1.4,13.586-10.4,16.52-12.627,16.95l.208,7.784a.609.609,0,0,1-1.077.423ZM248.683,99.9l6.239,6.9-.215-7.992.357-.052c.557-.074,13.756-2.013,12.315-16.141-.832-8.111-4.152-15.963-34.332-15.108-12.954.371-21.541,3.929-24.906,10.3-2.912,5.541-2.065,11.617-.208,14.484,5.14,7.9,17.768,8.913,40.564,7.628Z" transform="translate(-205.46 -66.662)" fill="#0b64d9"/>
        </g>
        <path id="Path_40" data-name="Path 40" d="M222.66,82.85a5.273,5.273,0,0,1,1.79.275,4.375,4.375,0,0,1,1.3.683,3.046,3.046,0,0,1,.78.906,2.228,2.228,0,0,1,.3.936.312.312,0,0,1-.111.3.446.446,0,0,1-.3.111h-1.07a.631.631,0,0,1-.386-.1,1.055,1.055,0,0,1-.238-.267,1.916,1.916,0,0,0-.691-.661,2.711,2.711,0,0,0-1.374-.282,3.536,3.536,0,0,0-.743.082,2.377,2.377,0,0,0-.624.245,1.248,1.248,0,0,0-.416.394.869.869,0,0,0-.156.513,1.017,1.017,0,0,0,.149.572,1.077,1.077,0,0,0,.483.379,4.62,4.62,0,0,0,.906.3c.379.1.847.2,1.4.319a9.811,9.811,0,0,1,1.575.468,3.87,3.87,0,0,1,1.084.639,2.51,2.51,0,0,1,.624.862,2.919,2.919,0,0,1,.2,1.114,2.674,2.674,0,0,1-.3,1.27,2.971,2.971,0,0,1-.869,1,4.271,4.271,0,0,1-1.382.661,6.47,6.47,0,0,1-1.842.245,6.2,6.2,0,0,1-1.634-.208,4.7,4.7,0,0,1-1.374-.594,3.142,3.142,0,0,1-.966-.936,2.444,2.444,0,0,1-.416-1.218.349.349,0,0,1,.119-.3.438.438,0,0,1,.3-.111h1.062a.743.743,0,0,1,.4.089.7.7,0,0,1,.223.275,2.567,2.567,0,0,0,.26.394,1.419,1.419,0,0,0,.416.357,2.4,2.4,0,0,0,.646.245,3.915,3.915,0,0,0,.966.1,5.758,5.758,0,0,0,.884-.067,2.912,2.912,0,0,0,.743-.23,1.589,1.589,0,0,0,.52-.4.862.862,0,0,0,.2-.579.743.743,0,0,0-.215-.55,1.641,1.641,0,0,0-.646-.364,8.074,8.074,0,0,0-1.077-.29c-.423-.1-.921-.208-1.486-.357a7.362,7.362,0,0,1-1.33-.431,3.15,3.15,0,0,1-.943-.617,2.228,2.228,0,0,1-.557-.862,3.454,3.454,0,0,1-.186-1.181,2.711,2.711,0,0,1,.3-1.263,3.061,3.061,0,0,1,.832-1.018,4.093,4.093,0,0,1,1.27-.646,5.288,5.288,0,0,1,1.6-.208Z" transform="translate(-208.778 -70.826)" fill="#37474f"/>
        <path id="Path_41" data-name="Path 41" d="M235.666,86.54a4.264,4.264,0,0,1,1.486.26,3.528,3.528,0,0,1,1.174.743,3.655,3.655,0,0,1,.795,1.07,3.514,3.514,0,0,1,.342,1.307c0,.089,0,.208,0,.349v1.188a4,4,0,0,1-.349,1.307,3.388,3.388,0,0,1-.787,1.062,3.64,3.64,0,0,1-1.174.743,4.546,4.546,0,0,1-3.031,0,3.714,3.714,0,0,1-1.174-.743,3.365,3.365,0,0,1-.78-1.062,3.662,3.662,0,0,1-.349-1.307V90.269a3.416,3.416,0,0,1,0-.349,3.373,3.373,0,0,1,.342-1.307,3.506,3.506,0,0,1,.787-1.07,3.6,3.6,0,0,1,1.174-.743A4.263,4.263,0,0,1,235.666,86.54Zm1.842,3.424a1.931,1.931,0,0,0-.223-.78,1.419,1.419,0,0,0-.431-.5,1.612,1.612,0,0,0-.565-.253,2.971,2.971,0,0,0-1.248,0,1.612,1.612,0,0,0-.565.253,1.418,1.418,0,0,0-.431.5,1.93,1.93,0,0,0-.223.78v1.374a1.931,1.931,0,0,0,.223.743,1.419,1.419,0,0,0,.431.5,1.612,1.612,0,0,0,.565.253,2.971,2.971,0,0,0,1.248,0,1.612,1.612,0,0,0,.565-.253,1.419,1.419,0,0,0,.431-.5,1.931,1.931,0,0,0,.223-.743,2.889,2.889,0,0,0,0-.3V90.3a1.072,1.072,0,0,0,.015-.334Z" transform="translate(-212.239 -71.775)" fill="#37474f"/>
        <path id="Path_42" data-name="Path 42" d="M248.227,88.566a1.827,1.827,0,0,0-1.322.409,1.805,1.805,0,0,0-.4,1.315v3.959a.423.423,0,0,1-.119.29.4.4,0,0,1-.29.126h-1.159a.431.431,0,0,1-.416-.416V87.155a.431.431,0,0,1,.416-.416h1.159a.4.4,0,0,1,.29.126.423.423,0,0,1,.119.29V87.5a3.068,3.068,0,0,1,.847-.565,2.912,2.912,0,0,1,1.181-.2h.683a.4.4,0,0,1,.29.126.394.394,0,0,1,.119.29v1a.409.409,0,0,1-.409.409Z" transform="translate(-215.507 -71.826)" fill="#37474f"/>
        <path id="Path_43" data-name="Path 43" d="M256.8,88.564a1.827,1.827,0,0,0-1.322.409,1.8,1.8,0,0,0-.4,1.315v3.959a.4.4,0,0,1-.126.29.371.371,0,0,1-.282.126h-1.159a.431.431,0,0,1-.416-.416V87.153a.431.431,0,0,1,.416-.416h1.159a.371.371,0,0,1,.282.126.4.4,0,0,1,.126.29V87.5a2.971,2.971,0,0,1,.847-.572,2.912,2.912,0,0,1,1.181-.2h.683a.4.4,0,0,1,.29.126.394.394,0,0,1,.119.29v1a.409.409,0,0,1-.409.409Z" transform="translate(-217.711 -71.823)" fill="#37474f"/>
        <path id="Path_44" data-name="Path 44" d="M263.855,94.235l-3.016-6.975a.439.439,0,0,1,0-.1.4.4,0,0,1,.126-.29.386.386,0,0,1,.29-.126h1.136a.453.453,0,0,1,.319.126.6.6,0,0,1,.186.245l2.028,4.7,1.976-4.7a.668.668,0,0,1,.186-.245.468.468,0,0,1,.319-.126h1.144a.4.4,0,0,1,.29.126.394.394,0,0,1,.119.29.439.439,0,0,1,0,.1l-4.286,9.931a.6.6,0,0,1-.186.245.445.445,0,0,1-.319.119H263.03a.394.394,0,0,1-.29-.119.4.4,0,0,1-.126-.29.457.457,0,0,1,0-.111Z" transform="translate(-219.703 -71.827)" fill="#37474f"/>
        <path id="Path_45" data-name="Path 45" d="M275.406,91.547a.431.431,0,0,1,.416.416V93.3a.431.431,0,0,1-.416.416H274.1a.4.4,0,0,1-.29-.126.394.394,0,0,1-.119-.29V91.963a.393.393,0,0,1,.119-.29.4.4,0,0,1,.29-.126Zm.334-1.322a.409.409,0,0,1-.409.409h-1.159a.409.409,0,0,1-.409-.409V83.466a.394.394,0,0,1,.119-.29.4.4,0,0,1,.29-.126h1.159a.4.4,0,0,1,.29.126.394.394,0,0,1,.119.29Z" transform="translate(-223.01 -70.877)" fill="#37474f"/>
      </g>
    </g>
    <g id="freepik--character-3--inject-2" transform="translate(240.14 60.276)">
      <g id="freepik--Character--inject-2" transform="translate(0 0)">
        <g id="freepik--Bottom--inject-2" transform="translate(35.916 116.885)">
          <path id="Path_46" data-name="Path 46" d="M431.66,394.971a11.685,11.685,0,0,0,1.679,5.7,3.932,3.932,0,0,0,4.524,1.33,6.685,6.685,0,0,0,4.412-3.959A10.488,10.488,0,0,0,442.43,392Z" transform="translate(-382.214 -270.079)" fill="#263238"/>
          <path id="Path_47" data-name="Path 47" d="M438.5,372.579c.409,1.679.609,2.823,1.166,5.133.869,3.565,1.79,5.081,2.318,8.052.6,3.395.253,5.044-1.077,7.056s-5.467,4.316-7.747,1.448c-1.864-2.332-2.043-5.006-2.02-8.416a73.028,73.028,0,0,0-.587-8.631v-.052c-.089-.914-.238-2.711-.371-3.617-.29-2,1.07-2.228,1.6-2.5a7.7,7.7,0,0,1,2.37-.862,7.222,7.222,0,0,1,2.555.111C437.656,370.485,438.1,370.967,438.5,372.579Z" transform="translate(-381.822 -264.452)" fill="#37474f"/>
          <path id="Path_48" data-name="Path 48" d="M365.269,379.235a2.31,2.31,0,0,0,.505,2.421,10.952,10.952,0,0,0,7.829,1.486,13.869,13.869,0,0,0,7.428-3.1c1.53-1.292,3.625-3.12,5.355-3.543a13.138,13.138,0,0,0,4.234-1.783c.52-.505.409-2.711.409-2.711Z" transform="translate(-365.1 -264.935)" fill="#263238"/>
          <path id="Path_49" data-name="Path 49" d="M389.164,362.707a1.025,1.025,0,0,1,.513.119,1.575,1.575,0,0,1,.572,1.285,5.134,5.134,0,0,0,.186,1.263,10.147,10.147,0,0,1,.505,5c-.267,1.092-3.179,2.08-4.85,2.748a21.6,21.6,0,0,0-5.378,3.5,16.245,16.245,0,0,1-8.059,3.172c-3.833.171-6.351-.743-7.16-2.065-1-1.619-.282-2.592,4.07-4.7.824-.4,3.714-2.162,4.694-2.8A23.457,23.457,0,0,0,377.228,368a16.971,16.971,0,0,0,1.307-1.33,17.586,17.586,0,0,1,2.124-1.864,10.872,10.872,0,0,1,1.642-1.211,7.346,7.346,0,0,1,3.135-.876c1.114-.074,2.176.149,3.291.037A1.94,1.94,0,0,1,389.164,362.707Z" transform="translate(-365.092 -262.542)" fill="#37474f"/>
          <path id="Path_50" data-name="Path 50" d="M423.009,335.1c-.854-7.361-.26-15.517-1.367-27.015h0c-.178-2.971-.416-6.121-.743-8.913-1.07-9.433-2.719-12.627-2.934-14.425,0,0-.1-18.57-1.582-39.256-.691-9.731-3.714-12.561-6.291-17.634L381.124,229c-2.585,12.887-1.991,41.953-1.359,55.1.319,6.685,2.065,30.751,2.154,41.656,0,3.2-.616,4.353-1.753,5.63-2.384,2.681-5.452,4.59-8.371,6.685-.81,1.746,3.276,2.763,6.685.9,2.882-1.582,6.187-3.513,7.175-4.271,2.488-1.939,5.2-3.246,5.675-5.987.2-1.114,5.437-26.74,5.534-32.289a127.449,127.449,0,0,0-.847-12.895l2.377-20.4s3.187,15.547,5.081,23.769,3.989,17.961,6.15,26.087h0c2.147,9.367,5.036,18.443,5.675,23.153.178,1.122,1.954,12.145,2.607,14.655s6.388,2.347,6.574-2.028C424.606,345.822,423.173,336.485,423.009,335.1Z" transform="translate(-366.789 -227.86)" fill="#b16668"/>
          <path id="Path_51" data-name="Path 51" d="M413.333,228.09c3.528,5.66,6.165,10.288,7.2,27.483s.936,27.661,1.092,29.712,1.255,3.588,2.778,13.771.743,22.581.743,22.581-.973,1.894-5.014,2.414c-3.714.475-5.638-.81-5.638-.81s-5.073-18.859-6.745-25.871c-1.463-6.113-6.663-29.979-6.663-29.979l-1.775,16.527a43.7,43.7,0,0,1,.319,15.056c-1.2,9.032-3.224,17.886-3.224,17.886a21.69,21.69,0,0,1-5.809.743,20.665,20.665,0,0,1-6.752-1.248s-1.916-26-2.325-36.174-1.233-38.38,1.954-50.673Z" transform="translate(-369.213 -227.919)" fill="#455a64"/>
          <path id="Path_52" data-name="Path 52" d="M426.718,304.745a7.429,7.429,0,0,0-6.069-1.367,8.131,8.131,0,0,0-5.459,2.927C419.35,304.292,426.718,304.745,426.718,304.745Zm-9.233,2.228c2.347.349,4.68.453,9.738-.743-2.436-.475-9.738.72-9.738.72Z" transform="translate(-377.978 -247.253)" fill="#b16668"/>
          <path id="Path_53" data-name="Path 53" d="M381.71,300.266a7.941,7.941,0,0,0,.052,1.107,51.464,51.464,0,0,1,10.057-.067C390.363,300.57,385.1,299.76,381.71,300.266Z" transform="translate(-369.367 -246.443)" fill="#b16668"/>
          <path id="Path_54" data-name="Path 54" d="M381.88,303.692c0,.334.037.676.059,1.033a53.542,53.542,0,0,0,7.554-1.166C386.062,303.447,382.645,303.64,381.88,303.692Z" transform="translate(-369.41 -247.322)" fill="#b16668"/>
          <path id="Path_55" data-name="Path 55" d="M429.695,289.812c-1.226-4.709-1.241-13.779-1.545-21.66-.089-2.377-.186-4.843-.319-7.428-.505-10.258-1.8-21.7-7.472-28.894l-.423.312c3.818,4.836,5.623,11.662,6.544,18.741-5.37-.461-6.745-5.5-8.624-12.434-.253-.951-.52-1.931-.8-2.971l-.513.134c.282,1,.55,1.983.8,2.927,1.879,6.923,3.365,12.4,9.2,12.835.386,3.12.617,6.284.743,9.337.134,2.615.223,5.073.319,7.428.3,7.9.319,17,1.56,21.764l.446,1.679c1.634,6.091,3.543,16.245,3.164,32.348.2-.119.386-.238.542-.349.327-15.948-1.567-26.057-3.194-32.133Z" transform="translate(-378.325 -228.881)" fill="#37474f"/>
          <path id="Path_56" data-name="Path 56" d="M402.709,272.9l-4.137-19.409s-7.064-.2-11.142-3.989c.884,3.35,6.6,5.942,9.159,6.455l.787,3.417c-.052,1.835-.111,3.766-.171,5.749-.327,10.971-.565,22.284,0,24.839,1.122,4.947.824,9.708.178,16.178-.579,5.838-1.582,13.073-2.228,16.772l.527-.067c.631-3.669,1.486-10.117,2.28-16.676s1.033-11.142-.267-16.341c-.617-2.466-.312-14.269,0-24.69.045-1.263.082-2.5.111-3.714l2.763,12.026.327,15.97Z" transform="translate(-370.838 -233.426)" fill="#37474f"/>
        </g>
        <g id="freepik--Top--inject-2">
          <path id="Path_57" data-name="Path 57" d="M334.381,186.792a20.8,20.8,0,0,1-.631-3.944,18.436,18.436,0,0,1,0-2.124c.052-.914.238-.527.906-.81a.579.579,0,0,0,.29-.513v-.624a.891.891,0,0,1,.55-.683,2.005,2.005,0,0,0,.453-.186c.275-.223.186-.668.334-1a.884.884,0,0,1,1.144-.371,1.486,1.486,0,0,1,.787,1.025.743.743,0,0,0,.1.245.646.646,0,0,0,.468.149,1.783,1.783,0,0,1,1.218.9c.669,1.136.542,2.57.839,3.818a6.3,6.3,0,0,0,1.092,2.362c.082.111.193.23.327.208s.2-.2.215-.342c.193-1.367-.49-2.808,0-4.108a3.893,3.893,0,0,1,.743-1.2.669.669,0,0,1,.238-.193.468.468,0,0,1,.557.29,6.183,6.183,0,0,1,.215,1.24,18.487,18.487,0,0,0,.877,3.038,12.538,12.538,0,0,1,.743,2.681,11.561,11.561,0,0,0,.223,2.5,1.8,1.8,0,0,0,.319.431c1.047,1.166,6.685,5.905,8.4,7.2,1.226.921,2.459,1.842,3.714,2.741,0,0,4.62-5.742,7.227-8.646,6.039-6.722,6.96-8,12.189-7.539l-4.694,16.5s-4.969,4.724-10.228,9.359c-3.09,2.726-5.326,3.135-9.827-1.53-2.615-2.711-8.252-9-9.523-10.4a36.141,36.141,0,0,0-3.914-3.187c-1.857-1.6-3.952-3.283-4.784-5.653A6.92,6.92,0,0,1,334.381,186.792Z" transform="translate(-321.107 -97.754)" fill="#b16668"/>
          <path id="Path_58" data-name="Path 58" d="M389.067,185.35c-3.38.089-5.764-.111-8.913,3.454-2.362,2.659-3.246,3.773-3.246,3.773a10.689,10.689,0,0,0,1.746,7.116,15.3,15.3,0,0,0,4.026,4.189L385.1,201.7Z" transform="translate(-332.199 -100.041)" fill="#263238"/>
          <path id="Path_59" data-name="Path 59" d="M417.538,225.783c-2.072-6.381-4.182-9.419-3.833-12.4.535-4.583,2.4-10.354,2.533-13.526.461-11.261-1.716-12.39-3.714-13.251,0,0-3.6-.78-5.578-1.248-1.189-.282-3.558-.609-3.558-.609-1.82-.067-5.519,0-7.019.141a17.4,17.4,0,0,1-2.072,0l-4.613.327a48.141,48.141,0,0,0-6.915,7.562c-3.513,4.754-4.858,10.4.223,14.648,0,0,.245,4.457.2,6.425-.208,2.852-1.151,7.978-1.612,13.89C389.386,234.956,408.751,233.262,417.538,225.783Z" transform="translate(-332.919 -99.88)" fill="#263238"/>
          <g id="freepik--4--inject-2">
            <path id="Path_60" data-name="Path 60" d="M383.086,170.167l-8.468-7.309,6.447-33.841-12.516-10.8-9.753,3.395-4.516,23.695-9.463-8.163L378.926,82.11,365.467,70.5l-9.753,3.395L319.236,132.4l-2.5,13.073,32.207,27.8-3.729,19.58,12.516,10.808,9.753-3.4,1.8-9.433.646.557,9.753-3.395Z" transform="translate(-316.74 -70.5)" fill="#0b64d9"/>
            <path id="Path_61" data-name="Path 61" d="M383.086,170.167l-8.468-7.309,6.447-33.841-12.516-10.8-9.753,3.395-4.516,23.695-9.463-8.163L378.926,82.11,365.467,70.5l-9.753,3.395L319.236,132.4l-2.5,13.073,32.207,27.8-3.729,19.58,12.516,10.808,9.753-3.4,1.8-9.433.646.557,9.753-3.395Z" transform="translate(-316.74 -70.5)" opacity="0.3"/>
            <g id="freepik--4--inject-2-2" data-name="freepik--4--inject-2" transform="translate(0 3.395)">
              <path id="Path_62" data-name="Path 62" d="M364.865,167.428l6.447-33.834L358.8,122.787l-6.455,33.841-17.285-14.915,34.116-55.026L355.714,75.07l-36.478,58.509-2.5,13.073,32.207,27.8-3.729,19.58,12.516,10.808,3.736-19.587,8.468,7.309,3.395-17.819Z" transform="translate(-316.74 -75.07)" fill="#0b64d9"/>
              <path id="Path_63" data-name="Path 63" d="M364.865,167.428l6.447-33.834L358.8,122.787l-6.455,33.841-17.285-14.915,34.116-55.026L355.714,75.07l-36.478,58.509-2.5,13.073,32.207,27.8-3.729,19.58,12.516,10.808,3.736-19.587,8.468,7.309,3.395-17.819Z" transform="translate(-316.74 -75.07)" fill="#fff" opacity="0.3"/>
            </g>
            <path id="Path_64" data-name="Path 64" d="M369.21,73.895l13.459,11.617,9.753-3.4L378.963,70.5Z" transform="translate(-330.236 -70.5)" fill="#0b64d9"/>
            <path id="Path_65" data-name="Path 65" d="M369.21,73.895l13.459,11.617,9.753-3.4L378.963,70.5Z" transform="translate(-330.236 -70.5)" fill="#fff" opacity="0.5"/>
            <path id="Path_66" data-name="Path 66" d="M373.36,138.135l9.753-3.395,12.516,10.8-9.753,3.4Z" transform="translate(-331.303 -87.023)" fill="#0b64d9"/>
            <path id="Path_67" data-name="Path 67" d="M373.36,138.135l9.753-3.395,12.516,10.8-9.753,3.4Z" transform="translate(-331.303 -87.023)" fill="#fff" opacity="0.5"/>
            <path id="Path_68" data-name="Path 68" d="M381.53,198.235l9.753-3.395,8.468,7.309L390,205.544Z" transform="translate(-333.405 -102.482)" fill="#0b64d9"/>
            <path id="Path_69" data-name="Path 69" d="M381.53,198.235l9.753-3.395,8.468,7.309L390,205.544Z" transform="translate(-333.405 -102.482)" fill="#fff" opacity="0.5"/>
            <path id="Path_70" data-name="Path 70" d="M341.4,163.615l9.76-3.395,9.463,8.163-1.939,10.146Z" transform="translate(-323.083 -93.577)" fill="#0b64d9"/>
            <path id="Path_71" data-name="Path 71" d="M341.4,163.615l9.76-3.395,9.463,8.163-1.939,10.146Z" transform="translate(-323.083 -93.577)" fill="#fff" opacity="0.5"/>
          </g>
          <g id="freepik--Head--inject-2" transform="translate(52.869 48.184)">
            <path id="Path_72" data-name="Path 72" d="M418.592,159.05a3.149,3.149,0,0,0,2.095-.869c.854-.832,1.233-2.169,2.3-2.719a12.167,12.167,0,0,1,2.473-.5,3.194,3.194,0,0,0,2.3-2.86c.059-1.359-.743-2.681-.475-4.011a14.945,14.945,0,0,1,1.092-2.318,3.84,3.84,0,0,0-1.486-4.553c-.676-.409-1.486-.6-2.147-.973-1.441-.795-1.218-2.518-2.421-3.573a4.123,4.123,0,0,0-3.885-.869c-.921.3-1.82.936-2.771.743a5.889,5.889,0,0,1-1.448-.743,4.182,4.182,0,0,0-5.252,1.292,4.146,4.146,0,0,1-1.107,1.426c-1,.594-1.159,1.285-1.627,2.347a3.454,3.454,0,0,0,.134,3.328c.483.676,1.285,1.114,1.634,1.864.661,1.411-.572,2.971-.743,4.5-.29,3.127,2.86,2.889,4.264,4.672a18.044,18.044,0,0,1,1.114,1.909c.78,1.278,2.414.743,3.714,1.24a12.112,12.112,0,0,0,1.411.557,3.031,3.031,0,0,0,.839.1Z" transform="translate(-392.532 -135.37)" fill="#263238"/>
            <path id="Path_73" data-name="Path 73" d="M416.149,142.394a5.8,5.8,0,0,1,1.976,1.983,1.426,1.426,0,0,1,.193,1.047c-.193.624-1,.795-1.649.81-2.481.074-5.3-.884-6.21-3.461C409.338,139.52,415.005,141.651,416.149,142.394Z" transform="translate(-393.677 -136.823)" fill="#0b64d9"/>
            <path id="Path_74" data-name="Path 74" d="M406.771,167.5a2.667,2.667,0,0,1-2.3-1.025c-1.4-1.434-2.377-3.246-3.81-4.657a19.368,19.368,0,0,0-6.3-3.669,10.221,10.221,0,0,0-3.476-.891,3.432,3.432,0,0,1-2.451-1.916,4.368,4.368,0,0,1-.342-3.276c.3-1.025,1-1.946,1.062-3.016.052-.743-.223-1.486-.245-2.273a3.558,3.558,0,0,1,2.228-3.343c1.3-.505,2.875-.23,4.018-1.025.884-.617,1.3-1.753,2.228-2.34a3.714,3.714,0,0,1,1.575-.5,7.717,7.717,0,0,1,5.2,1.285A11.932,11.932,0,0,0,406,142.069a17.391,17.391,0,0,0,2.793.565,5.638,5.638,0,0,1,4.063,3.387c.386,1.174.238,2.4.579,3.573a22.518,22.518,0,0,0,1.783,3.387,8.089,8.089,0,0,1,.825,4.457,3.669,3.669,0,0,1-.513,1.679c-.825,1.248-2.711,1.582-3.268,2.971a6.117,6.117,0,0,0-.267,1.33,5.043,5.043,0,0,1-4.657,4.033C406.779,167.458,407.291,167.361,406.771,167.5Z" transform="translate(-387.917 -136.438)" fill="#263238"/>
            <path id="Path_75" data-name="Path 75" d="M408.607,174.234c.037-1.122.453-6.73.453-6.73,0,.423,2.013,1.656,3.929-.423s1.8-5.2.49-6.507c-2.006-1.983-5.029-.379-5.452,2.347-1.6.8-2.1-1.166-1.01-3.365-.082-1.812-1.946-2.11-1.708-6.039-.163-1.968-6.128-3.87-11.365-2.889-1.1,2.228-2.451,4.085-2.228,6.945.074,1.01-.743,2.228-.891,3.565-.52,5.942,1.04,8.809,2.9,9.9a8.307,8.307,0,0,0,4.568,1.092L398.1,174h0c-.082.936,0,1.783-.936,2.043a7.287,7.287,0,0,0,1.746,7.888c6.113-1.315,10.956-6.418,11.4-7.316C408.756,176.091,408.563,175.348,408.607,174.234Z" transform="translate(-388.639 -139.226)" fill="#b16668"/>
            <path id="Path_76" data-name="Path 76" d="M393.136,158.069l2.488-.446a1.211,1.211,0,0,0-1.419-1.04A1.33,1.33,0,0,0,393.136,158.069Z" transform="translate(-389.256 -140.821)" fill="#263238"/>
            <path id="Path_77" data-name="Path 77" d="M405.42,157.73l1.887,1.738a1.233,1.233,0,0,1-1.783.111A1.352,1.352,0,0,1,405.42,157.73Z" transform="translate(-392.337 -141.121)" fill="#263238"/>
            <path id="Path_78" data-name="Path 78" d="M395.61,161.155a1.085,1.085,0,0,1-1.062,1.062,1.018,1.018,0,0,1-1.047-1.025,1.084,1.084,0,0,1,1.062-1.062,1.018,1.018,0,0,1,1.047,1.025Z" transform="translate(-389.353 -141.738)" fill="#263238"/>
            <path id="Path_79" data-name="Path 79" d="M405.539,162.765a1.084,1.084,0,0,1-1.062,1.062,1.01,1.01,0,0,1-1.047-1.025,1.092,1.092,0,0,1,1.07-1.062,1.018,1.018,0,0,1,1.04,1.025Z" transform="translate(-391.907 -142.152)" fill="#263238"/>
            <path id="Path_80" data-name="Path 80" d="M394.73,165.808l3.135,1.367,1.226-5.875C397.768,161.225,396.26,163.3,394.73,165.808Z" transform="translate(-389.669 -142.039)" fill="#9a4a4d"/>
            <circle id="Ellipse_1" data-name="Ellipse 1" cx="1.025" cy="1.025" r="1.025" transform="translate(8.143 26.117)" fill="#9a4a4d"/>
            <path id="Path_81" data-name="Path 81" d="M401.011,171.57a.948.948,0,0,1,0,.253,1.018,1.018,0,0,1-1.7.743A2.229,2.229,0,0,1,401.011,171.57Z" transform="translate(-390.847 -144.681)" fill="#f28f8f"/>
            <path id="Path_82" data-name="Path 82" d="M400.844,178.338c2.971,0,5.073-.49,6.418-1.344a7.3,7.3,0,0,0,2.459-2.5,7.339,7.339,0,0,1-2.1,3.35c-2.771,2.109-6.878,1.931-6.878,1.931Z" transform="translate(-391.215 -145.432)" fill="#9a4a4d"/>
          </g>
          <path id="Path_83" data-name="Path 83" d="M402.687,212.923s-.223,1.188-.238,1.4c-.045,2.228,1.292,3.759,3.38,4.657a114.481,114.481,0,0,0,13.979,4.457c7.1,1.9,10.718.683,12.018-.594s1.864-4.33,1.062-7.614c-2.459-10.139-2.971-11.847-4.182-15.784-3.127-10.332-4.91-10.525-9.938-11.951-2.808,3.12-3.157,9.24-1.486,14.707,2.273,7.428,3.892,11.469,3.892,11.469a123.188,123.188,0,0,1-12.323-1.916c-2.674-.557-1.916-4.457-1.916-4.457Z" transform="translate(-338.785 -100.591)" fill="#b16668"/>
          <path id="Path_84" data-name="Path 84" d="M406.354,209.006c.386-2.058.3-2.5-.475-4s-1.122-2.184-1.486-2.741a14.18,14.18,0,0,0-2.362-2.5c-.8-.431-1.226,1.2-.572,2.28s1.627,2.436,1.627,2.436Z" transform="translate(-338.448 -103.73)" fill="#9a4a4d"/>
          <path id="Path_85" data-name="Path 85" d="M403.887,219.6c-.186-.535,1.738-1.857,1.56-2.837s-.357-1.025.193-1.872a1.879,1.879,0,0,0,.193-2.095c-.327-.475.743-.81.409-1.872a19.034,19.034,0,0,0-1.983-3.632c-.565-.795-2.875-2.006-3.929-2.5s-1.285.4-1.255,1.077a3.312,3.312,0,0,0,.847,1.552s-1.226-.416-1.486,0c-.3.52-.215,1.612,1,2.525-1-.475-1.486-.082-1.367.743a3.529,3.529,0,0,0,1.4,1.961c1,.854,2.228,1.812,2.4,2.86l-.327,1.864Z" transform="translate(-337.653 -105.008)" fill="#b16668"/>
          <path id="Path_86" data-name="Path 86" d="M405.9,223.144c-.1-.23.052-.468.141-.669a3.526,3.526,0,0,1,.371-.565,8.066,8.066,0,0,0,.7-1.055.951.951,0,0,0,.119-.5l-.089-.654a1.189,1.189,0,0,1,.089-.743,2.227,2.227,0,0,1,.423-.542,3.572,3.572,0,0,0-.2.624,1.025,1.025,0,0,0,.059.572c.067.208.119.423.171.646a1.307,1.307,0,0,1-.134.787,4.457,4.457,0,0,1-.847,1.092l-.468.461A.9.9,0,0,0,405.9,223.144Z" transform="translate(-339.665 -108.547)" fill="#9a4a4d"/>
          <path id="Path_87" data-name="Path 87" d="M400.57,208.39c.587.238,1.174.475,1.746.743a10.554,10.554,0,0,1,1.686.936,8.355,8.355,0,0,1,1.2,1.538,15.788,15.788,0,0,1,.891,1.694c-.431-.468-.839-.951-1.233-1.441l-.594-.743a5.129,5.129,0,0,0-.587-.654c-.461-.342-1.047-.646-1.567-.98A13.951,13.951,0,0,1,400.57,208.39Z" transform="translate(-338.302 -105.967)" fill="#9a4a4d"/>
          <path id="Path_88" data-name="Path 88" d="M404.961,216.578a17.377,17.377,0,0,1-1-1.486,4.79,4.79,0,0,0-1.211-1.174c-.943-.743-1.909-1.389-2.808-2.228a16.139,16.139,0,0,1,3.1,1.8,4,4,0,0,1,1.241,1.367,14.526,14.526,0,0,1,.683,1.716Z" transform="translate(-338.14 -106.816)" fill="#9a4a4d"/>
          <path id="Path_89" data-name="Path 89" d="M427.526,222.328c2.756,0,5.244.342,7.264,2.473-1.6-3.357-4.843-3.365-7.651-3.491Z" transform="translate(-345.136 -109.29)" fill="#9a4a4d"/>
          <path id="Path_90" data-name="Path 90" d="M423,187.22c4.546,1.077,5.393,1.448,6.685,2.971s1.968,2.971,3.565,8.022c-1.226,3.157-11.283,5.348-11.283,5.348a33.2,33.2,0,0,1-1.382-5.653C420.2,195.168,420.162,190.184,423,187.22Z" transform="translate(-343.402 -100.522)" fill="#455a64"/>
        </g>
      </g>
    </g>
    <g id="freepik--character-2--inject-2" transform="translate(138.511 102.561)">
      <g id="freepik--character--inject-2-2" data-name="freepik--character--inject-2">
        <g id="freepik--bottom--inject-2-2" data-name="freepik--bottom--inject-2" transform="translate(15.488 107.751)">
          <path id="Path_91" data-name="Path 91" d="M206.115,375.342c.453-6.618.683-9.708,1.315-21.541h0c.059-3.031.171-6.269.371-9.151a58,58,0,0,1,2.763-15.339c.832-3.328.743-12.323,2-33.18a107.318,107.318,0,0,1,3.848-23.561h29.867c3.068,13.073,3.944,41.381,3.848,54.862-.045,6.863-.119,42.339.052,45.191a9.6,9.6,0,0,0,2.875,6.158c2.459,2.644,4.226,3.714,7.309,6.009-.446,1.181-6.908,1.136-8.75.238a67.71,67.71,0,0,1-7.71-4.531c-2.54-1.872-3.127-3.008-3.172-5.861V373.7c-.045-1.664-4.85-26.532-5.9-32.148-.817-4.368.074-12.813.074-12.813l-3.164-20.8s-2.785,16.572-4.694,24.973c-1.4,6.173-4.865,15.925-7.138,25.8h0c-2.652,10.035-2.867,10.919-4.457,18.1-.787,3.625-2.719,15.807-3.6,18.317-2.837,8.089-9.255,4.07-9.619-.4C202.06,391.788,206.019,376.768,206.115,375.342Z" transform="translate(-201.147 -272.511)" fill="#ffa8a7"/>
          <path id="Path_92" data-name="Path 92" d="M242,313.6l2.317-14.989s8.913-1.062,12.2-4.182c0,0-4.1,5.786-10.169,6.73l-2.555,12.419,1.344,20.642Z" transform="translate(-211.376 -278.133)" fill="#af6152"/>
          <path id="Path_93" data-name="Path 93" d="M280.026,425.824a2.607,2.607,0,0,1-.461,2.637,11.221,11.221,0,0,1-8.171,1.954,14.316,14.316,0,0,1-7.94-3.068c-1.642-1.344-3.952-3.246-5.794-3.632a17.227,17.227,0,0,1-5.066-1.82c-.557-.527-.505-2.875-.505-2.875Z" transform="translate(-213.97 -310.179)" fill="#263238"/>
          <path id="Path_94" data-name="Path 94" d="M253.5,407.9a1.233,1.233,0,0,0-.646.81c-.119.646-.119,1.486-.371,2.54a18.821,18.821,0,0,0-.342,5.719c.238,1.2,3.967,2.191,5.757,2.852a22.6,22.6,0,0,1,5.809,3.58,16.847,16.847,0,0,0,8.646,3.142c4.056,0,6.685-1.114,7.428-2.577.988-1.812.186-2.845-4.494-4.954-.884-.4-4-2.228-5.058-2.852a22.946,22.946,0,0,1-3.194-2.325,18.167,18.167,0,0,1-1.441-1.389,6.565,6.565,0,0,1-1.2-1.486c-.052-.126-.089-.267-.141-.394a6.3,6.3,0,0,1-.312-1.092c-.082-.386-.134-.951-.505-1.174a3.016,3.016,0,0,0-1.664-.178,13.275,13.275,0,0,0-1.8.267c-.683.163-2.4.052-2.8.7a3.4,3.4,0,0,0-.364,1.694v.817c0,.119.052.327-.111.282s-.334-.453-.394-.587c-.134-.3-.223-.631-.364-.928a2.718,2.718,0,0,0-.587-.98c-.787-.639-1.53-.505-1.76-.743A4.533,4.533,0,0,0,253.5,407.9Z" transform="translate(-213.963 -307.319)" fill="#37474f"/>
          <path id="Path_95" data-name="Path 95" d="M281.656,423.29c-5.861.461-7.673,4.108-7.9,6.351a13.986,13.986,0,0,0,4.174.832c4.056,0,6.834-1.114,7.628-2.577C286.491,426.187,285.823,424.82,281.656,423.29Z" transform="translate(-219.545 -311.278)" fill="#fafafa"/>
          <path id="Path_96" data-name="Path 96" d="M272.45,422.583a.279.279,0,0,1-.223-.461,6.886,6.886,0,0,1,5.281-2.154.29.29,0,0,1-.059.572,6.4,6.4,0,0,0-4.776,1.939.3.3,0,0,1-.223.1Z" transform="translate(-219.133 -310.422)" fill="#f0f0f0"/>
          <path id="Path_97" data-name="Path 97" d="M269.029,420.643a.3.3,0,0,1-.186-.067.29.29,0,0,1-.045-.4,6.878,6.878,0,0,1,5.281-2.147.29.29,0,0,1-.052.572,6.388,6.388,0,0,0-4.776,1.931A.282.282,0,0,1,269.029,420.643Z" transform="translate(-218.253 -309.923)" fill="#f0f0f0"/>
          <path id="Path_98" data-name="Path 98" d="M265.9,418.413a.282.282,0,0,1-.178-.067.275.275,0,0,1-.045-.4,6.878,6.878,0,0,1,5.281-2.147.29.29,0,0,1,.26.312.3.3,0,0,1-.319.26,6.4,6.4,0,0,0-4.776,1.931A.268.268,0,0,1,265.9,418.413Z" transform="translate(-217.448 -309.349)" fill="#f0f0f0"/>
          <path id="Path_99" data-name="Path 99" d="M262.739,416.164a.319.319,0,0,1-.178-.059.282.282,0,0,1-.052-.4,7.008,7.008,0,0,1,5.771-2.184.29.29,0,0,1,.26.312.282.282,0,0,1-.312.253,6.533,6.533,0,0,0-5.266,1.968A.3.3,0,0,1,262.739,416.164Z" transform="translate(-216.635 -308.757)" fill="#f0f0f0"/>
          <path id="Path_100" data-name="Path 100" d="M212.41,437.455a12.941,12.941,0,0,1-2.228,6,4.072,4.072,0,0,1-4.858,1.129c-1.812-.676-4.056-2.228-4.323-4.635a15,15,0,0,1,.3-6.581Z" transform="translate(-200.771 -313.87)" fill="#263238"/>
          <path id="Path_101" data-name="Path 101" d="M205.814,410.93c-.743,0-.973,3.632-1.827,7.279-.914,3.907-1.656,5.408-2.444,8.609-.891,3.654-.461,5.378.587,7.762s5.407,5.1,8.03,2.132c2.139-2.407,2.533-5.3,2.778-9.025a53.345,53.345,0,0,1,1.538-9.225c.654-2.971,1.359-5.638.743-6.024a26.843,26.843,0,0,1-.787,2.971c-.1.193-.453.676-.483-.111,0-.23.119-.743.119-.988a.973.973,0,0,0-.594-.966,7.51,7.51,0,0,0-3.187-1.077,8.588,8.588,0,0,0-3.714,0c-.527.2-.565.683-.676,1.144s-.171.891-.3.743C205.368,413.871,205.851,411.331,205.814,410.93Z" transform="translate(-200.845 -308.098)" fill="#37474f"/>
          <path id="Path_102" data-name="Path 102" d="M201.057,434.925a9.307,9.307,0,0,0,.81,5.794c1.047,2.384,5.771,5.14,8.394,2.184a10.547,10.547,0,0,0,2.184-5.237C211.375,435.036,203.434,433.053,201.057,434.925Z" transform="translate(-200.806 -314.081)" fill="#fafafa"/>
          <path id="Path_103" data-name="Path 103" d="M212.238,432.454l-.089-.037a13.169,13.169,0,0,0-6.96-1.486.3.3,0,0,1-.319-.253.282.282,0,0,1,.253-.312,13.452,13.452,0,0,1,7.331,1.545.3.3,0,0,1-.215.542Z" transform="translate(-201.825 -313.088)" fill="#f0f0f0"/>
          <path id="Path_104" data-name="Path 104" d="M205.863,427.226a.275.275,0,0,1-.215-.223.282.282,0,0,1,.215-.342c3.565-.78,7.19,1.389,7.324,1.486a.275.275,0,0,1,.082.394.29.29,0,0,1-.4.074s-3.558-2.124-6.878-1.389Z" transform="translate(-202.023 -312.101)" fill="#f0f0f0"/>
          <path id="Path_105" data-name="Path 105" d="M206.413,423.73a.29.29,0,0,1-.215-.215.282.282,0,0,1,.215-.342,9.834,9.834,0,0,1,7.428,1.486.29.29,0,1,1-.349.453,9.87,9.87,0,0,0-6.99-1.367Z" transform="translate(-202.165 -311.19)" fill="#f0f0f0"/>
          <path id="Path_106" data-name="Path 106" d="M207.053,420.294a.267.267,0,0,1-.215-.208.29.29,0,0,1,.208-.349c3.714-.928,7.368,1.486,7.51,1.56a.29.29,0,0,1-.342.461s-3.6-2.332-7.027-1.486A.275.275,0,0,1,207.053,420.294Z" transform="translate(-202.329 -310.309)" fill="#ebebeb"/>
          <path id="Path_107" data-name="Path 107" d="M215.2,272.564c-.743,7.97-1.136,10.161-2.355,28.323-1.181,17.612-.5,22.974-.669,25.1-.4,4.865-2.555,6.544-3.187,18.027-.579,10.518-.921,23.5-.921,23.5s1.411,1.946,5.422,2.3c3.714.334,5.549-1.055,5.549-1.055s6.856-24.512,8.765-30.707c2.6-8.379,5.459-25.879,5.459-25.879l2.421,16.839a60.366,60.366,0,0,0,.787,15.68c1.939,9.441,3.914,19.706,3.914,19.706a12.56,12.56,0,0,0,5.571.691c4.33-.438,5.771-1.441,5.771-1.441s1.218-28.531,1.218-38.944-.4-36-1.292-52.218Z" transform="translate(-202.648 -272.49)" fill="#455a64"/>
          <path id="Path_108" data-name="Path 108" d="M242,317.653l2.971-18.228s6.031-1.59,9.9-5.645c-.29,3.023-5.653,6.893-8.171,7.495l-3.357,16.156,1.033,17.084Z" transform="translate(-211.376 -277.966)" fill="#37474f"/>
          <path id="Path_109" data-name="Path 109" d="M230.823,276.39a24.9,24.9,0,0,0-2.228,4.784,46.732,46.732,0,0,0-1.486,5.073,51.427,51.427,0,0,0-.951,5.2,32.943,32.943,0,0,0-.349,5.274c.416-1.716.81-3.417,1.2-5.118s.743-3.4,1.181-5.1.817-3.38,1.255-5.066S230.3,278.076,230.823,276.39Z" transform="translate(-207.21 -273.493)" fill="#37474f"/>
          <path id="Path_110" data-name="Path 110" d="M227.171,277.25a19.857,19.857,0,0,0-2.384,2.674,25.548,25.548,0,0,0-1.931,2.971,22.733,22.733,0,0,0-1.486,3.276,14.173,14.173,0,0,0-.81,3.5l1.6-3.157c.542-1.032,1.077-2.065,1.649-3.083s1.129-2.043,1.686-3.075S226.651,278.335,227.171,277.25Z" transform="translate(-205.861 -273.714)" fill="#37474f"/>
          <path id="Path_111" data-name="Path 111" d="M230.265,305.63c-.743,5.467-1.441,10.934-2.132,16.4s-1.24,14.276-2.228,19.669-7.383,26.54-8.215,31.992c1.255-5.37,8.245-26.362,9.307-31.791s1.486-14.284,2.006-19.773S229.931,311.142,230.265,305.63Z" transform="translate(-205.123 -281.014)" fill="#37474f"/>
          <path id="Path_112" data-name="Path 112" d="M261,305.63l.921,14.388c.134,2.4.282,4.791.394,7.183s.253,4.791.215,7.153-.2,25.329.126,30.128c.557-5.348.817-25.255.98-30.105,0-4.858-.423-9.656-.854-14.425S261.743,310.362,261,305.63Z" transform="translate(-216.263 -281.014)" fill="#37474f"/>
          <path id="Path_113" data-name="Path 113" d="M251,392.894l.81,4.992s2.006,1.278,6.2.847,4.806-1.79,4.806-1.79v-4.7s-1.01.973-4.843,1.411A16.542,16.542,0,0,1,251,392.894Z" transform="translate(-213.69 -303.291)" fill="#37474f"/>
          <path id="Path_114" data-name="Path 114" d="M208.059,395.73l-.379,5.044s1.649,1.708,5.838,2.266,5.088-.616,5.088-.616l1.092-4.576s-1.2.743-5.036.245A16.565,16.565,0,0,1,208.059,395.73Z" transform="translate(-202.548 -304.189)" fill="#37474f"/>
        </g>
        <g id="freepik--top--inject-2-2" data-name="freepik--top--inject-2" transform="translate(4.386 32.513)">
          <g id="freepik--Chest--inject-2" transform="translate(0 17.634)">
            <path id="Path_115" data-name="Path 115" d="M257.23,216.735c3.892.475,7.978,2.875,15.064,6.789l7.584,4.2s6.358-12.137,8.691-16.074c3.387-5.7,6.083.876,5.2,3.231-1.649,4.4-2.191,9.508-4.94,19.06-1.419,4.932-2.407,7.056-8.579,5.029-5.088-1.664-17.909-6.388-17.909-6.388Z" transform="translate(-204.191 -198.655)" fill="#ffa8a7"/>
            <path id="Path_116" data-name="Path 116" d="M309.346,199.969c.364-2.384-1.486-5.029-1.486-5.029v3.58Z" transform="translate(-217.214 -194.94)" fill="#f28f8f"/>
            <path id="Path_117" data-name="Path 117" d="M256.88,218.58a18.5,18.5,0,0,1,8.52,2.815c2.637,1.612,12.308,7.1,12.308,7.1a15.9,15.9,0,0,1,.312,6.046,7.227,7.227,0,0,1-3.053,5.378l-14.009-4.687Z" transform="translate(-204.101 -201.021)" fill="#263238"/>
            <g id="freepik--chest--inject-2-2" data-name="freepik--chest--inject-2" transform="translate(21.879 17.341)">
              <path id="Path_118" data-name="Path 118" d="M217.055,221.981s-3.06,6.2-1.144,17.574a63.534,63.534,0,0,1,1.144,16.148c-.327,5.853-1.486,16.52-1.486,16.52,6.017,5.118,32.423,5.363,38.588-2.318,0,0-.342-12.627-.342-22.559,0-7.428-.416-13.645-1.263-17.151-1.9-7.918-4.739-10.488-6.343-11.691a63.674,63.674,0,0,0-12.991.253A123.423,123.423,0,0,0,219,221.32,6.142,6.142,0,0,0,217.055,221.981Z" transform="translate(-215.281 -218.286)" fill="#37474f"/>
            </g>
            <path id="Path_119" data-name="Path 119" d="M211,223.26c-5.2,1.8-6.173,4.174-9.887,10.57a134.12,134.12,0,0,0-8.913,19.194c-1.441,4.122.795,8.55,2.741,9.344,1.53.624,2.785,1.248,4.672-.2a21.029,21.029,0,0,0,4.115-4.531c3.714-5.794,9.463-15.829,9.463-15.829S217.188,228.266,211,223.26Z" transform="translate(-187.347 -202.224)" fill="#ffa8a7"/>
            <path id="Path_120" data-name="Path 120" d="M202.122,262.032c.966-4.94.134-6.685-.282-9.753s-.906-7.77-1.2-10.6c-1.4,2.644-2.756,5.46-3.937,8.074Z" transform="translate(-188.622 -206.962)" fill="#f28f8f"/>
            <path id="Path_121" data-name="Path 121" d="M197.26,243.149c.312,1.552,4.1,9.411,10.332,10.778l7.784-12.627s3.075-8.044-1.04-18.889c-4.672.876-6.685,1.879-9.537,6.425S197.26,243.149,197.26,243.149Z" transform="translate(-188.766 -202.006)" fill="#263238"/>
            <path id="Path_122" data-name="Path 122" d="M191.725,245.39c0,.928.134,1.59,0,4.68s-.275,3.543-.513,6.811c-.253,3.61-.906,5.942,1.4,9.612s5.044,2.912,7.383.847c1.159-3.588.817-9.322-.624-13.482a33.791,33.791,0,0,1-1.708-7.636Z" transform="translate(-187.138 -207.916)" fill="#ffa8a7"/>
            <path id="Path_123" data-name="Path 123" d="M187.292,233.655a1.218,1.218,0,0,0-1.352-.126c-.342.267.126,1.174.743,2.392.423.8,1.33,3.714,2.228,4.917a6.44,6.44,0,0,1,1.545,3.714A12.167,12.167,0,0,0,187.292,233.655Z" transform="translate(-185.825 -204.827)" fill="#f28f8f"/>
          </g>
          <g id="freepik--head--inject-2-2" data-name="freepik--head--inject-2" transform="translate(25.14)">
            <path id="Path_124" data-name="Path 124" d="M227.885,201.981c-2.548-3.647-4.858-5.942-6.73-10.013-.743-1.649-2-5.489-1.263-7.814.513-1.627,1.382-2.971,3.075-3.112a4.68,4.68,0,0,1,1.136-4.59,3.513,3.513,0,0,1,3.551-1.122,3.008,3.008,0,0,1,4.969-2.176A3.179,3.179,0,0,1,235.6,171.2a3.461,3.461,0,0,1,3.172,2.02c2.355-2.124,6.306-.743,6.447,3.372a1.82,1.82,0,0,1,3.038,1.441,4.978,4.978,0,0,0-.134,1.4,1.1,1.1,0,0,0,.825.824,1.114,1.114,0,0,0,1.092-.423,2.266,2.266,0,0,1-2.384,2.971,1.731,1.731,0,0,1-.505,1.79,2.05,2.05,0,0,1-1.419.409Z" transform="translate(-219.67 -171.2)" fill="#263238"/>
            <path id="Path_125" data-name="Path 125" d="M247.241,199.2c-.334,3.127-1.545,4.709-3.551,5.653a12.976,12.976,0,0,1-3.372.854l.3,3.343c6.8,6.685-7.963,7.576-11.461,1.523l-1.226-10.124s-1.151,1.679-3.521.52a4.828,4.828,0,0,1-2.228-5.69c.8-2.436,2.971-2.585,4.167-1.634,1.33,1.062,1.352,2.191,1.931,2.08a1.6,1.6,0,0,0,1.4-1.255,11.946,11.946,0,0,0,0-4.264,5.712,5.712,0,0,0,1.968-2.139,5.2,5.2,0,0,0-.631-4.576c2.369-1.2,5.2,1.129,7.9,1.181,3.06.059,3.06-2.518,4.732-2.488,1.486,1.04,2.369,3.758,2.5,5.556C246.394,191.249,247.9,193,247.241,199.2Z" transform="translate(-220.255 -174.024)" fill="#ffa8a7"/>
            <path id="Path_126" data-name="Path 126" d="M242.771,211.916c-3.6.2-7.428-.527-8.913-1.716a9.674,9.674,0,0,1-2.347-3.87s.624,3.454,1.812,4.865,3.788,1.768,5.37,1.961a41.293,41.293,0,0,0,4.2.163Z" transform="translate(-222.715 -180.236)" fill="#f28f8f"/>
            <path id="Path_127" data-name="Path 127" d="M251.8,190.5l-2.466-.743a1.24,1.24,0,0,1,1.575-.869A1.359,1.359,0,0,1,251.8,190.5Z" transform="translate(-227.299 -175.735)" fill="#263238"/>
            <path id="Path_128" data-name="Path 128" d="M237.362,192.328l2.065-1.612a1.27,1.27,0,0,0-1.8-.267A1.389,1.389,0,0,0,237.362,192.328Z" transform="translate(-224.155 -176.083)" fill="#263238"/>
            <path id="Path_129" data-name="Path 129" d="M249.649,193.808a1.107,1.107,0,0,0,1.174,1,1.033,1.033,0,0,0,.973-1.129,1.107,1.107,0,0,0-1.166-1,1.04,1.04,0,0,0-.98,1.129Z" transform="translate(-227.38 -176.724)" fill="#263238"/>
            <path id="Path_130" data-name="Path 130" d="M238.819,195.148a1.107,1.107,0,0,0,1.174,1,1.047,1.047,0,0,0,.98-1.136,1.114,1.114,0,0,0-1.174-.988,1.04,1.04,0,0,0-.98,1.129Z" transform="translate(-224.594 -177.069)" fill="#263238"/>
            <path id="Path_131" data-name="Path 131" d="M249.336,198.19l-3.417,1.486-1.389-6.685C245.77,192.634,247.939,195.895,249.336,198.19Z" transform="translate(-226.064 -176.798)" fill="#f28f8f"/>
            <path id="Path_132" data-name="Path 132" d="M244.555,204.637a2.229,2.229,0,0,0-1.486-.966,3.3,3.3,0,0,0-.973-.074,2.139,2.139,0,0,0-.988.245c-.149.089,0,.334.149.327a6.686,6.686,0,0,1,1.76,0,3.841,3.841,0,0,1,.854.282c.223.1.409.245.631.349C244.563,204.778,244.578,204.637,244.555,204.637Z" transform="translate(-225.168 -179.531)" fill="#b16668"/>
          </g>
        </g>
        <path id="Path_133" data-name="Path 133" d="M274.977,176.647a47.538,47.538,0,1,0-95.017,0v6.967a47.538,47.538,0,1,0,95.017,0Zm-47.538,29.221A29.229,29.229,0,0,1,198.47,180.13a29.221,29.221,0,0,1,58.027,0,29.229,29.229,0,0,1-29.036,25.715Z" transform="translate(-179.923 -127.428)" fill="#0b64d9"/>
        <path id="Path_134" data-name="Path 134" d="M274.977,176.647a47.538,47.538,0,1,0-95.017,0v6.967a47.538,47.538,0,1,0,95.017,0Zm-47.538,29.221A29.229,29.229,0,0,1,198.47,180.13a29.221,29.221,0,0,1,58.027,0,29.229,29.229,0,0,1-29.036,25.715Z" transform="translate(-179.923 -127.428)" fill="#fff" opacity="0.5"/>
        <path id="Path_135" data-name="Path 135" d="M227.458,139.1A47.538,47.538,0,1,0,275,186.638,47.538,47.538,0,0,0,227.458,139.1Zm0,76.737a29.229,29.229,0,1,1,29.236-29.221,29.229,29.229,0,0,1-29.236,29.221Z" transform="translate(-179.92 -130.43)" fill="#0b64d9"/>
        <path id="Path_136" data-name="Path 136" d="M227.458,139.1A47.538,47.538,0,1,0,275,186.638,47.538,47.538,0,0,0,227.458,139.1Zm0,76.737a29.229,29.229,0,1,1,29.236-29.221,29.229,29.229,0,0,1-29.236,29.221Z" transform="translate(-179.92 -130.43)" fill="#fff" opacity="0.3"/>
        <path id="Path_137" data-name="Path 137" d="M233.821,224.1a29.214,29.214,0,0,1-28.969-25.693,27.677,27.677,0,0,0-.223,3.439,29.229,29.229,0,1,0,58.212-3.417A29.221,29.221,0,0,1,233.821,224.1Z" transform="translate(-186.275 -145.685)" fill="#0b64d9"/>
        <path id="Path_138" data-name="Path 138" d="M233.821,224.1a29.214,29.214,0,0,1-28.969-25.693,27.677,27.677,0,0,0-.223,3.439,29.229,29.229,0,1,0,58.212-3.417A29.221,29.221,0,0,1,233.821,224.1Z" transform="translate(-186.275 -145.685)" opacity="0.3"/>
        <g id="freepik--Hand--inject-2" transform="translate(87.005 53.436)">
          <path id="Path_139" data-name="Path 139" d="M307.138,202.586c.7-1.337.594-1.486.037-2.035a3.855,3.855,0,0,0-3.328-1.144,7.881,7.881,0,0,0-2.644.683c-.505.357.126,1.448,1.552,1.56,2.228.171,2.325.743,2.325.743a28.3,28.3,0,0,0-2.889-.1,21.4,21.4,0,0,0-3.127.943c-.906.282-.914,1.486.706,1.679l-1.649.513c-1.151.357-1.486,1.047-.431,1.642a1.79,1.79,0,0,0,1.122.253s-1.255.178-1.218.6c.1,1.211.914,1.411,3.565,1.783,2.228.319,3.083,1.092,2.971,2l-.111.565s.891-.743,1.679-1.441a1.61,1.61,0,0,0,.609-2.05s1.389-.178,1.352-1.04a4.457,4.457,0,0,0-.594-1.79,1.538,1.538,0,0,0,.557-1.53,2.444,2.444,0,0,0-.743-1.434Z" transform="translate(-297.053 -199.367)" fill="#ffa8a7"/>
          <path id="Path_140" data-name="Path 140" d="M300.71,206.746a8.172,8.172,0,0,1,1.486-.386,5,5,0,0,1,1.552.26,18.239,18.239,0,0,1,2.875,1.047,18.436,18.436,0,0,1-2.971-.609,7.2,7.2,0,0,0-1.426-.342C301.75,206.7,301.223,206.769,300.71,206.746Z" transform="translate(-297.994 -201.166)" fill="#f28f8f"/>
          <path id="Path_141" data-name="Path 141" d="M299.42,210.016a3.32,3.32,0,0,1,1.656-.29,8.777,8.777,0,0,1,1.649.267,15.6,15.6,0,0,1,3.1,1.136,32.532,32.532,0,0,1-3.216-.7A8.646,8.646,0,0,0,299.42,210.016Z" transform="translate(-297.662 -202.029)" fill="#f28f8f"/>
        </g>
        <g id="freepik--hand--inject-2-2" data-name="freepik--hand--inject-2" transform="translate(5.668 79.413)">
          <path id="Path_142" data-name="Path 142" d="M188.82,239.844c-1.337-.669-1.344-.854-1.218-1.627a3.84,3.84,0,0,1,2.02-2.875,7.77,7.77,0,0,1,2.54-1c.624,0,.743,1.24-.342,2.176-1.723,1.486-1.3,1.835-1.3,1.835s1.486-1.2,2.154-1.619a21.461,21.461,0,0,1,3.09-1.077c.891-.3,1.619.676.416,1.775l1.634-.557c1.144-.386,1.8,0,1.315,1.077a1.768,1.768,0,0,1-.743.862s1.122-.594,1.344-.23c.631,1.04.082,1.686-1.842,3.543-1.634,1.582-1.85,2.689-1.233,3.357l.423.409s-1.144-.067-2.228-.193c-.743-.089-1.486-.282-1.708-1.3a2.228,2.228,0,0,1-1.939-.468c-.475-.431-.327-1.382-.327-1.382a1.731,1.731,0,0,1-1.4-.988,2.05,2.05,0,0,1-.215-1.486Z" transform="translate(-187.551 -234.34)" fill="#ffa8a7"/>
          <path id="Path_143" data-name="Path 143" d="M197.694,238.5a7.932,7.932,0,0,0-1.448.572,5.266,5.266,0,0,0-1.107,1.122,17.455,17.455,0,0,0-1.708,2.54,19.132,19.132,0,0,0,2.065-2.228,7.873,7.873,0,0,1,.951-1.114C196.825,239.079,197.293,238.819,197.694,238.5Z" transform="translate(-189.063 -235.41)" fill="#f28f8f"/>
          <path id="Path_144" data-name="Path 144" d="M200.549,240.36a3.454,3.454,0,0,0-1.486.743,9.328,9.328,0,0,0-1.174,1.188,15.6,15.6,0,0,0-1.85,2.741,32.211,32.211,0,0,0,2.228-2.444A8.645,8.645,0,0,1,200.549,240.36Z" transform="translate(-189.734 -235.888)" fill="#f28f8f"/>
        </g>
      </g>
    </g>
    <g id="freepik--character-1--inject-2" transform="translate(45.882 52.922)">
      <g id="freepik--character--inject-2-3" data-name="freepik--character--inject-2">
        <g id="freepik--bottom--inject-2-3" data-name="freepik--bottom--inject-2" transform="translate(0 131.927)">
          <path id="Path_145" data-name="Path 145" d="M101.061,358.208,99.88,347.727l11.974-1.077s-.505,8.082-.431,11.781a19.989,19.989,0,0,0,1.263,5.036s-4.992,2.585-7.584,1.53-4.308-5.148-4.249-5.9S101.061,358.208,101.061,358.208Z" transform="translate(-66.703 -266.102)" fill="#ffbda7"/>
          <path id="Path_146" data-name="Path 146" d="M126.277,381.7a2.162,2.162,0,0,1-.617,2.266,11.781,11.781,0,0,1-8.379,1.894,14.079,14.079,0,0,1-7.718-3.187c-1.575-1.352-3.788-3.246-5.593-3.677a13,13,0,0,1-4.457-2.3c-.527-.52-.409-2.8-.409-2.8Z" transform="translate(-66.501 -273.111)" fill="#263238"/>
          <path id="Path_147" data-name="Path 147" d="M100.868,362.18a.646.646,0,0,0-.617.527c-.134.624-.3,2.444-.587,3.469a18.123,18.123,0,0,0-.5,5.526c.2,1.174,3.372,2.629,5.11,3.32a22.225,22.225,0,0,1,5.615,3.625,16.1,16.1,0,0,0,8.394,3.246c3.09,0,6.581-.891,7.428-2.288,1.018-1.731,1.775-3.714-2.763-5.942-.862-.409-3.877-2.228-4.9-2.9-2.771-1.79-4.717-3.424-5.942-6.522a1.745,1.745,0,0,0-.646-.958,1.485,1.485,0,0,0-.884-.089,30.335,30.335,0,0,0-4.516.743c-.624.275-1.486.6-1.486,1.374a2.6,2.6,0,0,0,.156.787c.052.163.089.371-.052.468s-.312,0-.423-.126a11.139,11.139,0,0,1-1.211-1.486,13.15,13.15,0,0,0-1.151-1.337,7.837,7.837,0,0,1-.78-.513C100.8,362.886,100.876,362.544,100.868,362.18Z" transform="translate(-66.51 -270.097)" fill="#455a64"/>
          <path id="Path_148" data-name="Path 148" d="M112.766,382.48c-.787-.661-1.627-1.3-2.466-1.879h0s5.326,3.313,7.532,1.887a1.926,1.926,0,0,0,.743-2.436c0-.364,4.969-2.867,6.336-2.971h0c.379.208.683.394.891.475,3.551,1.486,3.989,3.291,3.35,5.563-.825,1.4-3.952,2.8-7.94,2.733A16.882,16.882,0,0,1,112.766,382.48Z" transform="translate(-69.383 -273.929)" fill="#37474f"/>
          <path id="Path_149" data-name="Path 149" d="M115.7,375.137c2.83,1.174,1.6,1.671.8,1.775s-5.541-2.741-8.423-5.073c-2.971-2.429-5.318-5.66-6.433-6.551-.416-.327-.869-.743-1.263-1.114.089-.616.156-1.181.223-1.486a.646.646,0,0,1,.617-.527c0,.364-.067.706.2.98a7.844,7.844,0,0,0,.78.513,13.164,13.164,0,0,1,1.151,1.337,11.139,11.139,0,0,0,1.211,1.486A36.135,36.135,0,0,0,115.7,375.137Z" transform="translate(-66.832 -270.091)" fill="#37474f"/>
          <path id="Path_150" data-name="Path 150" d="M121.69,380.28a.327.327,0,0,1-.178-.067.275.275,0,0,1,0-.394c.817-.958,4.672-3.187,6.759-2.927a.275.275,0,0,1,.245.312.267.267,0,0,1-.312.238c-1.954-.238-5.616,1.976-6.262,2.733A.3.3,0,0,1,121.69,380.28Z" transform="translate(-72.246 -273.876)" fill="#263238"/>
          <path id="Path_151" data-name="Path 151" d="M118.383,378.192a.26.26,0,0,1-.171-.067.275.275,0,0,1,0-.386c.824-.958,4.672-3.187,6.767-2.927a.275.275,0,0,1,.245.3.282.282,0,0,1-.319.245c-1.954-.238-5.608,1.976-6.262,2.733A.29.29,0,0,1,118.383,378.192Z" transform="translate(-71.398 -273.34)" fill="#263238"/>
          <path id="Path_152" data-name="Path 152" d="M115.066,376.212a.3.3,0,0,1-.171-.059.282.282,0,0,1-.037-.394c.824-.958,4.672-3.194,6.767-2.927a.275.275,0,0,1,.245.312.282.282,0,0,1-.319.238c-1.954-.238-5.608,1.976-6.262,2.733A.268.268,0,0,1,115.066,376.212Z" transform="translate(-70.539 -272.831)" fill="#263238"/>
          <path id="Path_153" data-name="Path 153" d="M112.014,373.972a.267.267,0,0,1-.178-.067.282.282,0,0,1-.037-.394c.824-.951,4.687-3.187,6.767-2.919a.267.267,0,0,1,.245.3.282.282,0,0,1-.312.245c-1.954-.245-5.615,1.976-6.269,2.733A.267.267,0,0,1,112.014,373.972Z" transform="translate(-69.752 -272.255)" fill="#263238"/>
          <path id="Path_154" data-name="Path 154" d="M109.014,371.707a.3.3,0,0,1-.171-.059.275.275,0,0,1-.045-.394c1.136-1.352,5.155-3.2,7.25-2.971a.275.275,0,0,1,.245.312.282.282,0,0,1-.319.238c-1.879-.238-5.734,1.545-6.737,2.748A.267.267,0,0,1,109.014,371.707Z" transform="translate(-68.981 -271.661)" fill="#263238"/>
          <path id="Path_155" data-name="Path 155" d="M71.29,363.8l2.837-12.583L61.745,349.28l-.23,12.419s-.951,3.343-.245,4.494,8.171,2.355,8.839,1.59S71.29,363.8,71.29,363.8Z" transform="translate(-56.705 -266.779)" fill="#ffbda7"/>
          <path id="Path_156" data-name="Path 156" d="M68.559,393.964c-.327,2.823-.921,4.65-2.139,6.173s-3.395,1.79-5.549,1.04-4.88-2.407-5.385-4.932a13.831,13.831,0,0,1,.334-6.774Z" transform="translate(-55.215 -277.116)" fill="#263238"/>
          <path id="Path_157" data-name="Path 157" d="M60.134,366c-.9-.045-.654,2.176-1.077,5.979-.461,4.122-2.317,7.346-2.971,10.644-.743,3.773-.609,5.519.795,8.022s6.685,5.445,9.485,2.444c2.288-2.444,2.525-5.437,2.518-9.3a85.749,85.749,0,0,1,.282-9.783c.312-2.852,1.486-5.489.743-5.905-.082.416-.847,3.305-1.352,3.261a5.258,5.258,0,0,1,.045-1.084,1.226,1.226,0,0,0-.2-.958,4.047,4.047,0,0,0-1.448-.743,32.543,32.543,0,0,0-3.328-.743c-.446-.089-.9-.163-1.344-.215a3.937,3.937,0,0,0-1.144,0,.743.743,0,0,0-.505.334,1.047,1.047,0,0,0-.067.431,2.97,2.97,0,0,1-.149.743c-.045.111-.134.238-.267.2a.26.26,0,0,1-.134-.253C60.037,368.614,60.1,366.245,60.134,366Z" transform="translate(-55.324 -271.079)" fill="#455a64"/>
          <path id="Path_158" data-name="Path 158" d="M56.341,387c-.119.542-.824,4.145.267,4.94s2-1.931,2-1.931,2.9-.431,6.99,1.694c-.245.572.3,2.615,1.486,2.34s1.812-4.457,1.82-4.457c0,3.714-.3,6.589-2.518,8.965-2.815,2.971-8.082.067-9.485-2.444s-1.552-4.249-.795-8.022A5.542,5.542,0,0,1,56.341,387Z" transform="translate(-55.327 -276.481)" fill="#37474f"/>
          <path id="Path_159" data-name="Path 159" d="M59.5,384.852c-.082,1.389-1.612.743-1.582-1.241s1.062-6.744,1.486-9.968c.26-4.628.446-7.688,1.344-7.643v.141c0,.045-.089,2.644-.1,2.971-.156,2.83-.193,8.327-.6,10.882a40.646,40.646,0,0,0-.542,4.858Z" transform="translate(-55.91 -271.079)" fill="#37474f"/>
          <path id="Path_160" data-name="Path 160" d="M68.372,386.9a38.141,38.141,0,0,0,1.092-4.761c.438-2.533,1.954-7.591,2.7-10.317.245-.446,1.01-2.971,1.01-2.971.624.171,0,2.6-.3,3.714s-.646,2.347-1.01,3.981c-.928,3.209-1.018,8.022-1.619,9.872S68.008,388.229,68.372,386.9Z" transform="translate(-58.585 -271.812)" fill="#37474f"/>
          <path id="Path_161" data-name="Path 161" d="M66.586,392.7a.327.327,0,0,1-.119-.045,12.3,12.3,0,0,0-6.878-1.486.371.371,0,0,1-.4-.253.275.275,0,0,1,.253-.334,12.873,12.873,0,0,1,7.361,1.59.29.29,0,0,1,.119.409.312.312,0,0,1-.334.119Z" transform="translate(-56.235 -277.391)" fill="#263238"/>
          <path id="Path_162" data-name="Path 162" d="M67.519,388.719a.349.349,0,0,1-.111-.045,15.39,15.39,0,0,0-7.7-1.656.364.364,0,0,1-.386-.267.267.267,0,0,1,.267-.319,15.762,15.762,0,0,1,8.134,1.746.3.3,0,0,1,.141.416A.327.327,0,0,1,67.519,388.719Z" transform="translate(-56.269 -276.328)" fill="#263238"/>
          <path id="Path_163" data-name="Path 163" d="M60.222,383.166a.386.386,0,0,1-.275-.238.282.282,0,0,1,.23-.349c4.078-.743,7.963,1.59,8.126,1.686a.3.3,0,0,1,.126.416.356.356,0,0,1-.461.067s-3.811-2.228-7.606-1.582Z" transform="translate(-56.43 -275.306)" fill="#263238"/>
          <path id="Path_164" data-name="Path 164" d="M60.712,379.565a.342.342,0,0,1-.267-.223.267.267,0,0,1,.215-.357,11.944,11.944,0,0,1,8.3,1.679.3.3,0,0,1,.089.423.349.349,0,0,1-.461.037,11.409,11.409,0,0,0-7.725-1.56.253.253,0,0,1-.149,0Z" transform="translate(-56.556 -274.379)" fill="#263238"/>
          <path id="Path_165" data-name="Path 165" d="M61.282,375.526a.356.356,0,0,1-.267-.23.26.26,0,0,1,.208-.349c4.212-.869,8.171,1.656,8.349,1.768a.29.29,0,0,1,.1.416.349.349,0,0,1-.461.052s-3.87-2.466-7.784-1.656Z" transform="translate(-56.702 -273.334)" fill="#263238"/>
          <path id="Path_166" data-name="Path 166" d="M66.322,238.21c-3.952,9.656-1.359,22.61-1.76,33.143-.475,12.627-.706,22.492-.706,22.492-.149,1.7-1.114,4.071-1.9,12.434-.832,8.824-.795,21.422-.795,21.422s7.428,3.179,12.093,1.538c0,0,4.977-18.9,7.428-29.288,2.28-9.834,3.959-25.21,3.959-25.21l2.7,14.819s-.334,6.358-.178,10.815c.186,5.2,2.971,25.017,2.971,25.017s6.93,4.152,11.751.193c0,0,2.347-29.11,2.5-35.342.3-12.226.654-36.263-.787-52Z" transform="translate(-56.744 -238.21)" fill="#37474f"/>
          <path id="Path_167" data-name="Path 167" d="M92.72,279.332l3.09-19.379s6.685-1.114,9.56-3.892a12.286,12.286,0,0,1-7.428,5.719L94.7,279.725l.743,14.425Z" transform="translate(-64.861 -242.801)" fill="#263238"/>
          <path id="Path_168" data-name="Path 168" d="M61,357.974C63.087,359.6,69.171,361,73.3,359.5l.839-3.506c-3.135,1.055-9.589.386-13.066-1.76Z" transform="translate(-56.703 -268.052)" fill="#455a64"/>
          <path id="Path_169" data-name="Path 169" d="M99.991,354.921c1.4,1.426,7.918,2.607,11.766.349l.282-3.521c-2.919,1.627-9.656,1.352-12.479-.319Z" transform="translate(-66.621 -267.332)" fill="#455a64"/>
          <path id="Path_170" data-name="Path 170" d="M65.241,285.16s-.646,15.71-.6,16.854,8.579,3.409,8.8,2.681c.371-1.211.282-3.907,1.018-16.928C67.38,286.854,65.241,285.16,65.241,285.16Z" transform="translate(-57.638 -250.286)" fill="#455a64"/>
          <path id="Path_171" data-name="Path 171" d="M73.437,294.072a2.973,2.973,0,0,0-.81-.067l-.936-.045a14.653,14.653,0,0,1-1.968-.3A15.342,15.342,0,0,1,67.569,293c-.579-.215-1.114-.513-1.694-.743-.052,0-.059.082,0,.1a7.809,7.809,0,0,0,1.8.921,14.4,14.4,0,0,0,3.714.921c.327.037.661.059.988.074a2.154,2.154,0,0,0,1.047-.074C73.482,294.2,73.489,294.095,73.437,294.072Z" transform="translate(-57.946 -252.112)" fill="#37474f"/>
          <path id="Path_172" data-name="Path 172" d="M70.725,291.651c-.082-.163-.141-.26-.327-.282a.639.639,0,0,0-.431.111.483.483,0,0,0-.208.357.609.609,0,0,0,.914.579.446.446,0,0,0,.149-.364.862.862,0,0,0-.1-.4Zm-.163.483a.334.334,0,0,1-.423.074c-.223-.126-.178-.542.089-.572a.341.341,0,0,1,.238.059A.349.349,0,0,1,70.561,292.134Z" transform="translate(-58.955 -251.882)" fill="#37474f"/>
        </g>
        <g id="freepik--top--inject-2-3" data-name="freepik--top--inject-2" transform="translate(8.241)">
          <path id="Path_173" data-name="Path 173" d="M104.13,183.13c4.3.743,6.388,1.872,9.656,7.056s9.8,19.988,9.8,19.988L137.7,220.99l-8.49,3.811c.245.357-2.006-.505-7.643-3.543-5.006-2.7-5.437-2.711-8.72-8.423-2.919-5.073-7.272-12.419-7.272-12.419Z" transform="translate(-76.038 -92.116)" fill="#ffbda7"/>
          <path id="Path_174" data-name="Path 174" d="M66.34,180.106h0a10.652,10.652,0,0,0,10.652-10.652V142.87H75.223a8.913,8.913,0,0,0-8.913,8.913Z" transform="translate(-66.31 -81.761)" fill="#37474f"/>
          <path id="Path_175" data-name="Path 175" d="M73.3,146.059a6.433,6.433,0,0,0-.312,1.352,3.579,3.579,0,0,0,0,.891,2.971,2.971,0,0,0,2.971,2.414,4.553,4.553,0,0,0,3.513-1.879c1.144-1.486,2.837-4.888.624-6.106a4.509,4.509,0,0,0-4.7.386,5.809,5.809,0,0,0-2.095,2.941Z" transform="translate(-68.021 -81.6)" fill="#0b64d9"/>
          <path id="Path_176" data-name="Path 176" d="M73.3,146.059a6.433,6.433,0,0,0-.312,1.352,3.579,3.579,0,0,0,0,.891,2.971,2.971,0,0,0,2.971,2.414,4.553,4.553,0,0,0,3.513-1.879c1.144-1.486,2.837-4.888.624-6.106a4.509,4.509,0,0,0-4.7.386,5.809,5.809,0,0,0-2.095,2.941Z" transform="translate(-68.021 -81.6)" opacity="0.25"/>
          <path id="Path_177" data-name="Path 177" d="M71.085,213.23c-.245,1.084-2.83,6.685-4.375,12.739,9.277,11.966,36.753,5.437,38.766-1.292-.431-8.007-.8-28.226-2.555-31.866a26.985,26.985,0,0,0-8.416-10.02,48.7,48.7,0,0,0-5.861-.743,28.567,28.567,0,0,0-8.787.223,42.584,42.584,0,0,0-7.955,2.355c-3.216,1.344-3.937,5.638-2.889,12.627C69.5,200.461,72.8,205.72,71.085,213.23Z" transform="translate(-66.413 -91.777)" fill="#455a64"/>
          <g id="freepik--4--inject-2-3" data-name="freepik--4--inject-2" transform="translate(10.681)">
            <path id="Path_178" data-name="Path 178" d="M147.036,160.267l-8.468-7.309,6.447-33.841-12.516-10.8-9.76,3.395-4.516,23.695-9.463-8.163L142.876,72.21,129.417,60.6l-9.753,3.395L83.186,122.5l-2.5,13.073,32.207,27.8-3.729,19.58,12.516,10.808,9.753-3.4,1.8-9.433.654.557,9.753-3.395Z" transform="translate(-80.69 -60.6)" fill="#0b64d9"/>
            <path id="Path_179" data-name="Path 179" d="M147.036,160.267l-8.468-7.309,6.447-33.841-12.516-10.8-9.76,3.395-4.516,23.695-9.463-8.163L142.876,72.21,129.417,60.6l-9.753,3.395L83.186,122.5l-2.5,13.073,32.207,27.8-3.729,19.58,12.516,10.808,9.753-3.4,1.8-9.433.654.557,9.753-3.395Z" transform="translate(-80.69 -60.6)" opacity="0.3"/>
            <g id="freepik--4--inject-2-4" data-name="freepik--4--inject-2" transform="translate(0 3.395)">
              <path id="Path_180" data-name="Path 180" d="M128.815,157.536l6.447-33.841-12.523-10.808-6.447,33.841L99.007,131.82l34.116-55.033L119.664,65.17,83.186,123.679l-2.5,13.081L112.9,164.548l-3.729,19.58,12.516,10.808,3.736-19.587,8.468,7.309,3.395-17.819Z" transform="translate(-80.69 -65.17)" fill="#0b64d9"/>
              <path id="Path_181" data-name="Path 181" d="M128.815,157.536l6.447-33.841-12.523-10.808-6.447,33.841L99.007,131.82l34.116-55.033L119.664,65.17,83.186,123.679l-2.5,13.081L112.9,164.548l-3.729,19.58,12.516,10.808,3.736-19.587,8.468,7.309,3.395-17.819Z" transform="translate(-80.69 -65.17)" fill="#fff" opacity="0.3"/>
            </g>
            <path id="Path_182" data-name="Path 182" d="M133.16,63.995l13.459,11.617,9.753-3.4L142.913,60.6Z" transform="translate(-94.186 -60.6)" fill="#0b64d9"/>
            <path id="Path_183" data-name="Path 183" d="M133.16,63.995l13.459,11.617,9.753-3.4L142.913,60.6Z" transform="translate(-94.186 -60.6)" fill="#fff" opacity="0.5"/>
            <path id="Path_184" data-name="Path 184" d="M137.3,128.235l9.76-3.395,12.516,10.8-9.753,3.4Z" transform="translate(-95.251 -77.123)" fill="#0b64d9"/>
            <path id="Path_185" data-name="Path 185" d="M137.3,128.235l9.76-3.395,12.516,10.8-9.753,3.4Z" transform="translate(-95.251 -77.123)" fill="#fff" opacity="0.5"/>
            <path id="Path_186" data-name="Path 186" d="M145.48,188.342l9.753-3.4,8.468,7.309-9.753,3.395Z" transform="translate(-97.355 -92.582)" fill="#0b64d9"/>
            <path id="Path_187" data-name="Path 187" d="M145.48,188.342l9.753-3.4,8.468,7.309-9.753,3.395Z" transform="translate(-97.355 -92.582)" fill="#fff" opacity="0.5"/>
            <path id="Path_188" data-name="Path 188" d="M105.35,153.722l9.753-3.4,9.463,8.163-1.931,10.146Z" transform="translate(-87.033 -83.677)" fill="#0b64d9"/>
            <path id="Path_189" data-name="Path 189" d="M105.35,153.722l9.753-3.4,9.463,8.163-1.931,10.146Z" transform="translate(-87.033 -83.677)" fill="#fff" opacity="0.5"/>
          </g>
          <path id="Path_190" data-name="Path 190" d="M136.082,192.822c-.743-.2.951-3.06.594-4.925-.178-.928-1.322-1.783-1.731-.542-.862,2.607-2,3.558-2.756,5.125" transform="translate(-83.255 -93.044)" fill="#ffbda7"/>
          <path id="Path_191" data-name="Path 191" d="M115.48,192.192a9.768,9.768,0,0,1-3.714,4.137c-2.28,1.6-15.71,4.457-15.71,4.457s-3.172-1.879-8.579-5.5c-6.856-4.583-13.274-10.05-15.428-9.656-6.789,1.939-5.2,11.833-2.555,14.046,1.738,1.486,3.714,2.793,10.785,6.559a81.741,81.741,0,0,0,10.971,5.2c3.952,1.671,4.769,1.337,9.738-.423s7.9-3.313,14.507-6.589a49.075,49.075,0,0,0,7.1-4.538,11.06,11.06,0,0,0,2.607-2.228,6.507,6.507,0,0,0,1.434-2.778,2.339,2.339,0,0,1,.149-.565c.1-.163.208-.319.319-.475a3.8,3.8,0,0,0,.579-.914,5.86,5.86,0,0,0,.193-1.136,3.218,3.218,0,0,1,.074-.527,3.362,3.362,0,0,1,.208-.513,4.167,4.167,0,0,0,.52-1.33.743.743,0,0,0-.282-.676s.357-.505.468-.683a4.169,4.169,0,0,0,.394-.795.394.394,0,0,0,0-.342.327.327,0,0,0-.156-.126c-.973-.505-1.909.1-2.674.7-1.991,1.53-2.919,2.912-5.081,4.226-1.174.743-1.486.876-1.968.869" transform="translate(-66.545 -92.755)" fill="#ffbda7"/>
          <path id="Path_192" data-name="Path 192" d="M147.8,189.94a17.657,17.657,0,0,1-1.122,1.486c-.379.468-.8.966-1.2,1.448-.2.238-.386.49-.6.743a7.037,7.037,0,0,1-.661.669,17.305,17.305,0,0,1-1.419,1.24l.646-.683c.215-.223.438-.453.646-.683s.423-.453.624-.691.386-.483.587-.743c.4-.483.81-.958,1.233-1.419Z" transform="translate(-85.984 -93.868)" fill="#f0997a"/>
          <path id="Path_193" data-name="Path 193" d="M147.8,193a7.778,7.778,0,0,1-.676,1.307c-.267.4-.55.795-.847,1.174s-.6.743-.921,1.114a12.227,12.227,0,0,1-1.032,1.025c.3-.379.594-.743.891-1.144l.876-1.136.884-1.144A11.193,11.193,0,0,0,147.8,193Z" transform="translate(-86.375 -94.655)" fill="#f0997a"/>
          <g id="freepik--head--inject-2-3" data-name="freepik--head--inject-2" transform="translate(4.992 57.578)">
            <path id="Path_194" data-name="Path 194" d="M98.753,156.674l.869-.267c3.914-2.1,3.714-7.205,2.771-9.864-2.124-5.942-8.535-8.171-12.509-8.371-7.524-.416-11.2,1.53-11.981,5.43a4.3,4.3,0,0,0-3.268,1.887c-1.85,2.518-4.048,11.3,5.7,20.56Z" transform="translate(-73.031 -138.116)" fill="#37474f"/>
            <path id="Path_195" data-name="Path 195" d="M78.8,165.515a3.476,3.476,0,0,1-3.2-1.448c-1.738-2.08-1.835-4.13-.928-5.46a2.831,2.831,0,0,1,3.669-.928,4.487,4.487,0,0,1,1.723,2.451c.453.966,2.34.928,2.971-2.741.557-3.417.4-7.012,2.147-8.5,2.6-2.228,5.274-1.486,6.225-.045,1.084-1.567,3.432-1.679,5.118-.691,1.226.743,2.5,1.872,2.369,5.719-.045,1.188.743,3.409.832,5.073.342,6.685-.743,8.319-2.54,9.939a7.621,7.621,0,0,1-5.244,1.619l.089,3.4s3.045,4.457,3.149,6.626l-14.314-6.8-.357-9.2a2.124,2.124,0,0,1-1.708.98Z" transform="translate(-73.308 -140.525)" fill="#ffbda7"/>
            <path id="Path_196" data-name="Path 196" d="M103.163,153.11l1.968,1.738A1.255,1.255,0,0,1,103.3,155a1.382,1.382,0,0,1-.141-1.894Z" transform="translate(-80.701 -141.972)" fill="#263238"/>
            <path id="Path_197" data-name="Path 197" d="M93.253,155.825l-2.429,1.448a1.344,1.344,0,0,1,.461-1.9,1.486,1.486,0,0,1,1.968.453Z" transform="translate(-77.551 -142.503)" fill="#263238"/>
            <path id="Path_198" data-name="Path 198" d="M85.916,149.053c-.587.743-1.018,1.486-.928,4.174a13.349,13.349,0,0,1-.795,5.274,3.59,3.59,0,0,1-2.778,2.421,5.289,5.289,0,0,1-2.615-.267,3,3,0,0,1-1.775-2.741,2.972,2.972,0,0,0,1.055.743,2.874,2.874,0,0,0,.958.23A2.919,2.919,0,0,0,81.5,157.52c.973-1.441.906-3.387,1.2-5.036.379-2.1.743-4.457,2.637-5.526,2.228-1.233,6.291-.683,6.782,1.6A4.457,4.457,0,0,0,85.916,149.053Z" transform="translate(-74.054 -140.225)" fill="#37474f"/>
            <path id="Path_199" data-name="Path 199" d="M98.8,158.29l.773,6.529,3.543-1.382Z" transform="translate(-79.659 -143.305)" fill="#f0997a"/>
            <path id="Path_200" data-name="Path 200" d="M95.055,160.7a1.032,1.032,0,1,1-1.025-1.025,1.032,1.032,0,0,1,1.025,1.025Z" transform="translate(-78.164 -143.66)" fill="#263238"/>
            <circle id="Ellipse_2" data-name="Ellipse 2" cx="1.025" cy="1.025" r="1.025" transform="translate(22.157 14.985)" fill="#263238"/>
            <path id="Path_201" data-name="Path 201" d="M98.29,169.492a1.025,1.025,0,1,1-.3-.73,1.025,1.025,0,0,1,.3.73Z" transform="translate(-79 -145.921)" fill="#b16668"/>
            <path id="Path_202" data-name="Path 202" d="M96.277,169.5a1,1,0,0,0,0,.26,1.025,1.025,0,0,0,1.025,1.025,1,1,0,0,0,.669-.253A2.228,2.228,0,0,0,96.277,169.5Z" transform="translate(-79.008 -146.188)" fill="#f28f8f"/>
            <path id="Path_203" data-name="Path 203" d="M94.536,176.8c-2.9-.111-5.541-.587-7.183-1.6a8.988,8.988,0,0,1-3.023-3.261,6.551,6.551,0,0,0,2.726,4.635c2.607,1.842,7.517,2.161,7.517,2.161Z" transform="translate(-75.937 -146.813)" fill="#f0997a"/>
          </g>
          <path id="Path_204" data-name="Path 204" d="M147.852,234.351c1.486,0,1.59-.171,1.82-.921a3.877,3.877,0,0,0-.542-3.476,8.119,8.119,0,0,0-1.835-2.02c-.557-.282-1.226.787-.654,2.1.891,2.08.4,2.414.4,2.414a28.616,28.616,0,0,0-1.27-2.592,21.109,21.109,0,0,0-2.3-2.332c-.669-.669-1.746-.111-1.151,1.411l-1.226-1.218c-.854-.854-1.6-.81-1.656.379a1.768,1.768,0,0,0,.312,1.114s-.743-1.032-1.107-.8c-1.025.654-.817,1.486.089,3.989.743,2.147.468,3.239-.379,3.565l-.55.156s1.04.461,2.05.817c.743.26,1.486.409,2.1-.416,0,0,.8,1.144,1.552.706a4.456,4.456,0,0,0,1.3-1.359,1.538,1.538,0,0,0,1.619-.223,2.481,2.481,0,0,0,.928-1.307Z" transform="translate(-84.701 -103.434)" fill="#ffbda7"/>
          <path id="Path_205" data-name="Path 205" d="M143.89,229.56a7.748,7.748,0,0,1,1.04,1.151,5.051,5.051,0,0,1,.5,1.486,18.032,18.032,0,0,1,.416,3.031,17.88,17.88,0,0,1-.854-2.934,8.6,8.6,0,0,0-.364-1.419C144.41,230.459,144.105,230.021,143.89,229.56Z" transform="translate(-86.265 -104.059)" fill="#f0997a"/>
          <path id="Path_206" data-name="Path 206" d="M140.43,229.93a3.461,3.461,0,0,1,1.025,1.322,9.494,9.494,0,0,1,.527,1.59,16.186,16.186,0,0,1,.453,3.276,30.568,30.568,0,0,1-.891-3.172,8.913,8.913,0,0,0-1.114-3.016Z" transform="translate(-85.375 -104.154)" fill="#f0997a"/>
        </g>
      </g>
    </g>
  </g>
</svg>
